<svg id="SubtleTexture4_Image" data-name="SubtleTexture4 Image" xmlns="http://www.w3.org/2000/svg" viewBox="0 0 960 960">
  <title>Artboard 1</title>
  <g>
    <path d="M958.893,638.547c0,.008.24.278.53.6a5.559,5.559,0,0,1,1.057,1.813c0,.352-.509,1.337-1.131,1.407a1.556,1.556,0,0,1-1.064-2.437l.608-1.383Z"/>
    <path d="M438.24,960.48a4.336,4.336,0,0,1-1.221-.285c-.407-.157-1.663-.968-1.527-1.314a3.119,3.119,0,0,1,1.2-1.194c.291-.061.981.506,1.314,1S438.5,960.48,438.24,960.48Z"/>
    <path d="M776,.48c.088,0,.717.089,1.4.2s.7,2.046.383,2.213-1.546.275-1.666-.31A7.99,7.99,0,0,1,776,.48Z"/>
    <path d="M327.2.48c.088,0,.718.05,1.4.11s.342,2.2.06,2.363-1.459.3-1.53-.316A8.335,8.335,0,0,1,327.2.48Z"/>
    <path d="M960.48,816.8c0,.352-.177.593-.393.535a4.736,4.736,0,0,1-1.217-1.153c-.333-.437-.823-1.607-.262-1.485A4.7,4.7,0,0,1,960.48,816.8Z"/>
    <path d="M960.48,611.36c0,.352-.29.382-.645.066s-1.077-1.361-.679-1.5S960.48,611.008,960.48,611.36Z"/>
    <path d="M.48,138.56c0-.176.27-.32.6-.32a4.582,4.582,0,0,1,1.237.137c.021.075-.211.355-.562.456S.48,138.736.48,138.56Z"/>
    <path d="M960.48,96c0,.264-.26.435-.578.38s-.48-.783-.259-.9S960.48,95.736,960.48,96Z"/>
    <path d="M960.48,717.76c0,.176-.431.306-.959.29s-.592-1.391-.254-1.291A3.034,3.034,0,0,1,960.48,717.76Z"/>
    <path d="M219.04.48a.342.342,0,0,1,.32.358,2,2,0,0,1-.126.757.566.566,0,0,1-.446-.315C218.681,1.06,218.864.48,219.04.48Z"/>
    <path d="M667.84.48a.48.48,0,0,1,.424.278c.057.153.163.6.108.643a.546.546,0,0,1-.523-.193C667.671,1.008,667.664.48,667.84.48Z"/>
    <path d="M950.908,417.526a1.882,1.882,0,0,0,.918,1.921c.622.28,1.24,2.394,1.255,2.793s-1.288.271-1.54.361l-.17.162-.147.14c-.082.226-.849.416-1.706.423s-2.895-.337-2.559-.764,1.083-1.821.651-1.821-1.576-.418-1.064-.928a9.941,9.941,0,0,0,1.771-2.3,1.23,1.23,0,0,1,1.688-.718l.651.527Z"/>
    <path d="M304.725,91.721c-.166-.033-.5.253-.74.635s-1.286,1.055-1.818.687.032-2.915.462-3.636,2.966-1.693,3.479-1.651,1.6,1.725,1.659,2.847l-.363.855-.305.719C306.107,92.028,304.891,91.755,304.725,91.721Z"/>
    <path d="M822.476,903.647c.143.091-.069.342-.472.558s-.807-1.617-.423-2.359,3.375-1.408,4.211-1.105.691,3.568.23,4.521-2.913,1.446-3,.83a6.506,6.506,0,0,1,.2-2.794c.293-.3-.365-1.392-.573-1.067S822.332,903.556,822.476,903.647Z"/>
    <path d="M372.847,904.3c-.08.047-.325-.152-.544-.442s-.015-1.313.32-2.092,3.28-1.24,4.056-.9.73,3.483.287,4.4-3.01,1.323-2.945.341-.039-3.472-.394-3.114A9.851,9.851,0,0,0,372.847,904.3Z"/>
    <path d="M337.158,58.376a1.562,1.562,0,0,1,1.665-.084c.49.3.2,2.6-.245,3.586l-1.079.357-1.19.392a6.823,6.823,0,0,1-1.706-2.35c-.131-.526-.079-2.062.212-2.211S336.733,58.72,337.158,58.376Z"/>
    <path d="M868.148,14.653a1.373,1.373,0,0,1,1.521-.785c.69.089,2.556,1.449,3.435,1.549s2.7,1.736,2.4,2.484l-.953-.25A17.439,17.439,0,0,0,871.6,17.1l-.563-.048c-.641.2-1.267.1-1.391-.231a8.126,8.126,0,0,0-.671-1.394.526.526,0,0,0-.651.209,6.035,6.035,0,0,1-.561.954A15.352,15.352,0,0,1,868.148,14.653Z"/>
    <path d="M115.873,228.212c.211-1.023.878-1.715,1.482-1.537a18.494,18.494,0,0,1,2.822.978,3.344,3.344,0,0,1,.676,2.019c-.076.381-1.365.9-1.8,1S115.663,229.235,115.873,228.212Z"/>
    <path d="M198.213,273.829c.223-.255.43.187.46.983s-2.388,1.806-4.1,1.537l-.029-1.541,0-.134c.706-1.772,1.7-2.939,2.21-2.593s1.425,1.208.911,1.154S197.99,274.083,198.213,273.829Z"/>
    <path d="M748.325,768.042a1.211,1.211,0,0,1-.607-1.053c.057-.333,1.231-.9,2.511-.7s3.078,2.641,2.281,2.679A16.8,16.8,0,0,1,748.325,768.042Z"/>
    <path d="M300,768.148c-.79-.192-1.4-.649-1.346-1.016s1.208-1,2.5-.858,3.478,2.928,3.152,3.245S300.793,768.34,300,768.148Z"/>
    <path d="M307.738,825.12c-.044.04.2.187.551.327a3.243,3.243,0,0,0,2.487-.582c.6-.627,2.217-2.558,1.885-2.524s-.9-.2-.616-.586l.213-.295-.059.041,1.98,1.007c-.754,1.923-1.557,3.859-1.785,4.3s-1.837.028-2.143.109a2.688,2.688,0,0,1-2.074-1.076l-.439-.724Z"/>
    <path d="M299.771,68.213c-.075.919-.733,1.322-1.464.9a13.706,13.706,0,0,1-2.707-2,4.133,4.133,0,0,1,.9-1.787C296.957,64.819,299.845,67.293,299.771,68.213Z"/>
    <path d="M783.355,59.454c.078-.8.349-1.456.6-1.463a2.739,2.739,0,0,1,1.048.3,1.236,1.236,0,0,0,1.172-.2c.391-.329,1.6,1.237,1.047,1.707S783.278,60.252,783.355,59.454Z"/>
    <path d="M665.381,17.969c-.371.069-.653-.567-.627-1.414a6.178,6.178,0,0,1,1.7-2.945c.348-.144,1.288,1.093,1.42,1.968S665.752,17.9,665.381,17.969Z"/>
    <path d="M657.053,945.728c.364-.224.437.529.162,1.672s-2.49,3.332-2.813,3.108-1-1.086-.856-1.462a7.623,7.623,0,0,1,1.177-1.647C655,947.159,656.689,945.952,657.053,945.728Z"/>
    <path d="M217.125,17.846c-.768.13-1.431-1.1-1.475-2.735l1.106-1.168.55-.581c.613.251,1.414,1.949,1.779,3.773l-1.309.475Z"/>
    <path d="M208.135,945.69c.445-.271.471.454.059,1.612s-2.426,3.465-2.815,3.206-.935-.939-.542-1.065.558-1.678.823-1.96A27.32,27.32,0,0,1,208.135,945.69Z"/>
    <path d="M76.84,789.17c-.163.53-.91.565-1.66.078l-.257-.517-.483-.972a4.984,4.984,0,0,1-.03-2.935c.279-.439,1.509.394,1.813.867A8.949,8.949,0,0,1,76.84,789.17Z"/>
    <path d="M57.762,842.494c.371.466-.01.98-.848,1.142s-3.09-.031-3.181-.421a2.557,2.557,0,0,1,.621-2C54.871,840.875,57.39,842.029,57.762,842.494Z"/>
    <path d="M157.75,335.254c-.931.812-1.9,1.093-2.161.625a11.94,11.94,0,0,1-.772-2.215c-.054-.348.713-1.231,1.4-1.407s1.9.913,2.231,1.712l-.247.456Z"/>
    <path d="M762.285,822.2a7.349,7.349,0,0,0,.233,1.171,9.181,9.181,0,0,1-.707,3.033c-.191.528-2.045.514-2.365.568s-1.5,0-1.69-.316-.559-1.289-.184-1.065a1.858,1.858,0,0,0,1.539-.1c.252-.213,1.57-1.57,2.411-2.471l.763-.82Z"/>
    <path d="M525.824,788.24c-.184.9-.811,1.141-1.394.524a7.636,7.636,0,0,1-1.3-3.117c.091-.3.657-1.039,1.027-.978S526.009,787.336,525.824,788.24Z"/>
    <path d="M273.569,871.7c.224-.5,1.617-.658,3.1-.359l.127,1.176.176,1.629c-1.55.605-3.022.829-3.271.5A6.112,6.112,0,0,1,273.569,871.7Z"/>
    <path d="M722.659,871.641a1.546,1.546,0,0,1,1.688-.53c.713.159,1.106,1.836.654,2.279s-1.881,1.683-2.177,1.3A6.125,6.125,0,0,1,722.659,871.641Z"/>
    <path d="M506.815,841.893c-.043-.042-.034.18.02.493a.886.886,0,0,1-.691,1.2,9.376,9.376,0,0,1-3.3,0,4.752,4.752,0,0,0-.305-1.363c-.16-.443,1.061-1.3,1.509-1.411s1.892.749,2.341.926l.422.15Z"/>
    <path d="M408.709,2.581c-.014-.293.43-.286.986.014a9.641,9.641,0,0,0,3.022.643,9.526,9.526,0,0,1,2.025,0,6.545,6.545,0,0,1-2.458.787l-1.2.377-.756.237c-.879.591-1.809.945-2.069.786s-.956-.913-.639-1.116A4.31,4.31,0,0,0,408.709,2.581Z"/>
    <path d="M686.235,51.089c-.106.09-.067-.153.086-.539s2.256-.442,3.446-.3l.371,1.128a1.838,1.838,0,0,1-.5,1.638l-.379.286a3.056,3.056,0,0,1-1.76-1.022C687.25,51.872,686.34,51,686.235,51.089Z"/>
    <path d="M504.969,85.465c.653.387,1.051,1.025.885,1.417a2.347,2.347,0,0,1-2.147,1.01C502.857,87.67,504.315,85.078,504.969,85.465Z"/>
    <path d="M237.54,50.236a2.978,2.978,0,0,1,1.72-.2,4.961,4.961,0,0,1,1.768,1.259c.219.355-.652,1.811-1.312,2.254l-.655-.378a7.361,7.361,0,0,1-1.766-1.5,1.107,1.107,0,0,1-.058-1.073Z"/>
    <path d="M713.181,213.716c-.065-.24.162-.112.5.283a28.87,28.87,0,0,1,1.829,2.26,1.581,1.581,0,0,1-.553,1.781,5.57,5.57,0,0,1-2.674-1.748l.37-.853.15-.347A2.7,2.7,0,0,0,713.181,213.716Z"/>
    <path d="M264.947,218.073c-.341-.043-.641-.763-.668-1.6s.533-2.386,1.265-1.683l.6.665.25.277a9.128,9.128,0,0,1,.263,2.581l-1.4-.2Z"/>
    <path d="M56.6,87.457c-.123.389-1.53.507-3.127.262l-.382-1.349-.214-.756a3.89,3.89,0,0,1,2.079-.294C55.513,85.434,56.719,87.069,56.6,87.457Z"/>
    <path d="M655.7,128.081c.645.348.576.89-.153,1.2s-2.738-.559-2.876-.76a1.222,1.222,0,0,1,.007-1.027A7.939,7.939,0,0,1,655.7,128.081Z"/>
    <path d="M899.1,928.284a6.493,6.493,0,0,1-.525-1.617c-.193-.811,1.927-2.038,2.437-1.9s.949,1.8.409,2.228A9.9,9.9,0,0,1,899.1,928.284Z"/>
    <path d="M653.338,8.878c.215-.51,1.178-.79,2.139-.622s.707,2.869.019,2.969S653.123,9.389,653.338,8.878Z"/>
    <path d="M507.029,943.888c-.326-.656.073-1.058.887-.892s2.615,1.168,2.341,1.888S507.354,944.545,507.029,943.888Z"/>
    <path d="M60.465,943.32a1.03,1.03,0,0,1,.855,1.447c-.29.644-2.6.753-2.84.235S59.7,943.169,60.465,943.32Z"/>
    <path d="M606.136,334.744a1.273,1.273,0,0,1-1.615-.413c-.2-.471-.319-1.968.3-1.968S606.827,334.5,606.136,334.744Z"/>
    <path d="M204.3,8.859a1.9,1.9,0,0,1,2.116-.69c.923.2.863,2.9.32,3.108S204.058,9.433,204.3,8.859Z"/>
    <path d="M199.27,112.3a1.146,1.146,0,0,1-1.149.978,3.99,3.99,0,0,1-2.45-2.074l.933-.6.4-.26C197.726,110.517,199.389,111.7,199.27,112.3Z"/>
    <path d="M958.894,638.554s-1.036.3-2.3.666-3.778.589-2.8-.326S958.9,638.558,958.894,638.554Z"/>
    <path d="M535.445,427.72c.465.188.325.686-.313,1.106s-2.3-.152-2.513.52-1.95-.551-1.873-.891.7-1.284,1.208-1.315A18.7,18.7,0,0,1,535.445,427.72Z"/>
    <path d="M678.974,462.179c-.031-.18.146-.279.394-.22a6.712,6.712,0,0,1,1.231.572c.224.15.679.69.518.858s-.667.943-.963,1.276-1.451-.254-1.708-.572S679.005,462.36,678.974,462.179Z"/>
    <path d="M553.446,148.543c-.816.232-1.408-.173-1.314-.9s.609-2.72.925-2.717.9.516,1.122.881S554.262,148.312,553.446,148.543Z"/>
    <path d="M782.983,921.368c0-1.018.284-1.358.63-.756a5.509,5.509,0,0,1,.576,2.94C783.944,924.006,782.983,922.387,782.983,921.368Z"/>
    <path d="M84.958,428.324a1.243,1.243,0,0,0-1.462.754c-.162.549-1.436.059-1.5-.35s.843-1.232,1.829-1.226S85.6,428.458,84.958,428.324Z"/>
    <path d="M105.841,148.149c-1.609.479-2.856.268-2.771-.469s.808-2.68,1.425-2.763l.123.178a6.072,6.072,0,0,1,1,2.048Z"/>
    <path d="M812.1,551.129c-.225-.983.208-1.464.963-1.069a5.64,5.64,0,0,1,1.99,2.576C814.961,552.962,812.327,552.112,812.1,551.129Z"/>
    <path d="M362.485,11.558a.784.784,0,0,1-.764-.845c.074-.4,1.181-1,1.056-1.489s.053-1.492.689-1.078.36,3.368-.132,3.414h-.849Z"/>
    <path d="M333.419,833.1a.692.692,0,0,1,1.225.214c.272.574.743,2.134.516,2.351s-1.27.562-1.748.018A2.693,2.693,0,0,1,333.419,833.1Z"/>
    <path d="M688.355,519.489c.389,1.924-.094,2.96-1.88,4.034C685.772,521.272,685.772,521.272,688.355,519.489Z"/>
    <path d="M811.674,11.447c-.469-.024-.87-.28-.892-.569a3.432,3.432,0,0,1,.064-1.072c.075-.055.3-.068.338.092s-.071.037-.3-.552,1.16-1.665,1.735-1.206S812.143,11.471,811.674,11.447Z"/>
    <path d="M435.369,162.759a1.5,1.5,0,0,1,.1,1.505c-.244.407-2.1,1.081-2.226.828a2.576,2.576,0,0,1,.128-1.668C433.635,162.886,435.068,162.338,435.369,162.759Z"/>
    <path d="M335.5,922.377c-.862,1.446-1.568,1.815-1.568.821a30.753,30.753,0,0,1,.168-3.608,2.848,2.848,0,0,1,1.332.768l.016.48Z"/>
    <path d="M205.258,127.543c1.006.548.785,1.316-.49,1.706l-1.134-.306-.336-.091a1.475,1.475,0,0,1,.644-1.749l.389.13Z"/>
    <path d="M666.219,37.992c.8-.181,1.394-.007,1.312.387s-.788,1.367-1.395,1.335-2.138.071-2.056.3.08.706-.171.582S665.414,38.173,666.219,37.992Z"/>
    <path d="M146.511,870.781a1.651,1.651,0,0,1-.962-1.4c-.081-.668,1.58-1.326,1.831-.735S146.959,870.885,146.511,870.781Z"/>
    <path d="M182.043,206.132a3.3,3.3,0,0,1,1.1.112c.52.11,1.679.9.958,1.412s-2.413,1.421-2.117.846S181.958,206.18,182.043,206.132Z"/>
    <path d="M908.09,576.669c1.42,1.845-.52,3.415.257,5.186C906.333,580.84,906.279,578.328,908.09,576.669Z"/>
    <path d="M62.127,450.63a.916.916,0,0,1,.645,1.314c-.286.517-1.442,1.592-1.938,1.244S61.487,450.425,62.127,450.63Z"/>
    <path d="M930.409,848.449c.465.6.425,1.238-.089,1.427s-1.883.13-2.038-.5S929.944,847.853,930.409,848.449Z"/>
    <path d="M202.4,49.817c.486-1.111,1.264-1.958,1.73-1.881s1.965.913,2.135,1.663l-.506.373a2.459,2.459,0,0,1-1.948.3Z"/>
    <path d="M218.5,39.146a1.94,1.94,0,0,1-1.56.572c-.536-.07-1.893-.024-1.837.255s-.078.955-.444.8l-.01-.121-.051-.69a1.749,1.749,0,0,1,1.212-1.6C216.465,38.2,218.825,38.762,218.5,39.146Z"/>
    <path d="M378.916,819.568c0-.006-.595-.075-1.319-.155a25.223,25.223,0,0,1-3.351-.915c-.461-.172-1.849.446-2.047.43s-.872-.353-.524-.637a10.968,10.968,0,0,1,2.42-.871c.839-.251,3.331,1.238,4.323,1.108l.5,1.04Z"/>
    <path d="M557.817,487.787a4.106,4.106,0,0,1-1.114-.927l-.183-.554-.145-.442a3.035,3.035,0,0,1,.8-1.294c.221-.121,1.026.251,1.532.664l.013.41.023.7A3.107,3.107,0,0,1,557.817,487.787Z"/>
    <path d="M109.259,487.207c-.381.395-.906.478-1.167.185a5.274,5.274,0,0,1-.493-2.816l.645-.124.891-.172C109.484,484.988,109.64,486.812,109.259,487.207Z"/>
    <path d="M595.137,868.031c.446-.394.876-.366.954.063a4.4,4.4,0,0,0,.988,1.673c.289.218-.553,1.336-1.094,1.374S594.691,868.426,595.137,868.031Z"/>
    <path d="M652.264,48.338c.1-.285.558-.463,1.019-.4s1.671.707,1.69,1.276-1.5,1.113-1.92,1.1S652.164,48.623,652.264,48.338Z"/>
    <path d="M188.075,784.172c-1.795-.844-2.808.985-4.308,1.235C184.638,782.361,185.747,782.019,188.075,784.172Z"/>
    <path d="M237.723,34.416c-.589.482-.973.457-.854-.057s.775-1.858,1.2-1.858S238.312,33.933,237.723,34.416Z"/>
    <path d="M243.788,943.151c-.356.719-.979,1.138-1.385.931s-1.511-1.083-1.175-1.293a6.2,6.2,0,0,0,1.223-1.216C242.6,941.328,244.144,942.433,243.788,943.151Z"/>
    <path d="M637.056,783.9l-4.253,1.337C633.736,782.333,634.923,782.01,637.056,783.9Z"/>
    <path d="M957.749,125.838c-.521.4-1.007.306-1.081-.215s.074-2.181.546-2.149S958.27,125.434,957.749,125.838Z"/>
    <path d="M49.542,16.04c2-.263,2-.263,3.056,1.943C51.2,18.919,50.323,18.4,49.542,16.04Z"/>
    <path d="M500.563,117.069c-.035.095-.434.155-.886.133s-1.784-.467-1.906-.936.09-1.612.8-1.262A7.368,7.368,0,0,1,500.563,117.069Z"/>
    <path d="M48.483,115.337a.8.8,0,0,1,.74-1.047l.166.182.753.824c.834,1.038,1.122,1.887.64,1.887A4.853,4.853,0,0,1,48.483,115.337Z"/>
    <path d="M646.218,276.815c-.064.067-.489-.1-.946-.371s-1.6-1.307-1.352-1.6,1.191-.677,1.486-.147A9.871,9.871,0,0,1,646.218,276.815Z"/>
    <path d="M624.61,882.883c-.57-.047-.584-.448-.03-.889s2.482-.617,2.4-.218S625.181,882.931,624.61,882.883Z"/>
    <path d="M50.169,392.879a4.809,4.809,0,0,1-1.409.14c-.688,0-1.3-2.06-.83-2.1s1.873.134,2.024.481A3.767,3.767,0,0,1,50.169,392.879Z"/>
    <path d="M564.125,79.009c-.347.469-.856.547-1.131.174s-1.111-1.192-1.293-1.05-.766.328-.563-.16,2.2-.137,2.342-.377.719-.826.921-.648A2.9,2.9,0,0,1,564.125,79.009Z"/>
    <path d="M692.477,943.112c-.307.71-.827,1.143-1.155.963s-.946-1.083-.573-1.566S692.784,942.4,692.477,943.112Z"/>
    <path d="M499.225,16.912c-.236-.548.133-.89.819-.759s1.442,1.709,1.4,2.064l-.188.174-.187.173A4.234,4.234,0,0,1,499.225,16.912Z"/>
    <path d="M759.07,145.62c.285.614.213,1.116-.161,1.116s-1.306-.334-1.478-.742-.528-1.73-.343-1.871S758.784,145.006,759.07,145.62Z"/>
    <path d="M532.653,145.532c.3.525.329,1.079.07,1.229a1.7,1.7,0,0,1-1.622-.209C530.738,146.128,532.356,145.007,532.653,145.532Z"/>
    <path d="M504.163,878.825c.288.453.248.974-.088,1.158s-1.37.386-1.659.1a2.008,2.008,0,0,1-.2-1.607C502.375,878.125,503.876,878.372,504.163,878.825Z"/>
    <path d="M34.449,40.213a1.663,1.663,0,0,1-1.123-1.676l.915-.111,1.138-.138C36.121,39.617,35.087,40.35,34.449,40.213Z"/>
    <path d="M763.949,822.677c-.1.011-.292-.283-.435-.653a15.93,15.93,0,0,1-.049-2.7c0-.868,1.957-1.757,1.63-1.213a9.015,9.015,0,0,0-.517,2.7A5.811,5.811,0,0,1,763.949,822.677Z"/>
    <path d="M648.41,113.2l-3.972.476C645.795,111.5,647.231,111.316,648.41,113.2Z"/>
    <path d="M496.454,391.041c2.395-.378,2.395-.378,2.867,1.54C496.819,392.808,496.658,392.722,496.454,391.041Z"/>
    <path d="M826.534,818.742c.6.25.073.048-1.169-.449s-4.618.593-4.488.377A23.189,23.189,0,0,1,826.534,818.742Z"/>
    <path d="M176.73,881.181c.827-.082,1.39.194,1.251.612a4.21,4.21,0,0,1-1.452,1.84C176,883.828,175.9,881.262,176.73,881.181Z"/>
    <path d="M53.936,880.538c-.287.111-.456-.054-.377-.367s.1-1.015-.077-1.05-.746-.448-.493-.769,1.235-.924,1.52-.493,1.09,1.911.933,2S54.222,880.427,53.936,880.538Z"/>
    <path d="M120.637,233.242c-.342-.589.406-1.168,1.661-1.287l.605.873.246.356C122.95,233.954,120.979,233.831,120.637,233.242Z"/>
    <path d="M477.773,105.288c.664-.707,1.271-.825,1.348-.261s.132,2.236-.22,2.351-1.477-.14-1.559-.875l.186-.526Z"/>
    <path d="M784.267,834.477c.242.552.2.876-.1.722s-1.069-.314-.942.053.083,1.155-.443.744-.694-2.114-.74-2.671S784.026,833.926,784.267,834.477Z"/>
    <path d="M556,21.688c.368,1.078.147,1.923-.491,1.878s-1.379-1.3-1.362-1.672l.183-.181a1.077,1.077,0,0,1,.851-.188Z"/>
    <path d="M685.949,33.244c.32-.539.9-.9,1.284-.8l.3.056.308.058c.352.04.657.147.677.237a12.616,12.616,0,0,1-.308,1.435C688.055,34.9,685.63,33.783,685.949,33.244Z"/>
    <path d="M484.457,38.3c.67,1.34.748,2.309.173,2.153s-2.126-1.136-2.106-1.811l.879-.156Z"/>
    <path d="M172.992,945.1a.723.723,0,0,1,.281.832c-.088.348-.652,1.383-1.026,1.411s-1.262-.3-1.027-.808S172.749,944.992,172.992,945.1Z"/>
    <path d="M30.039,106.177c.232.562.125,1.11-.239,1.217s-1.437-.109-1.323-.791A21.814,21.814,0,0,1,29,104.181,14.813,14.813,0,0,1,30.039,106.177Z"/>
    <path d="M714.532,157.328a1.522,1.522,0,0,1,.889.2,1.329,1.329,0,0,1,.353,1.506c-.243.4-.832.868-.573.323S714.426,157.393,714.532,157.328Z"/>
    <path d="M307.677,145.323a1.02,1.02,0,0,1,.1-1.136c.248-.2,1.364-.427,1.663.179s.8,2.325.4,2.352A4.571,4.571,0,0,1,307.677,145.323Z"/>
    <path d="M558.923,35.1c-.3-1.053-.253-2.071.114-2.264s2.153,1.2,2.246,2.132l-1.065.059Z"/>
    <path d="M81.994,144.716c.338-.626.83-.72,1.092-.208s.811,2.071.585,2.225S81.655,145.343,81.994,144.716Z"/>
    <path d="M378.915,819.563s.421.446.933.985,1.611,2.153,1.161,2.244-1.839-.184-1.9-.854S378.914,819.56,378.915,819.563Z"/>
    <path d="M382.577,76.812c-1.51-1.271-1.489-2.167.039-3.792A4.744,4.744,0,0,1,382.577,76.812Z"/>
    <path d="M846.691,553.769c.276-.118.724.246,1,.808s.614,1.642.144,1.125S846.414,553.886,846.691,553.769Z"/>
    <path d="M107.514,22.941c.326.434-.494.758-1.82.719l-.476-.882a1.111,1.111,0,0,1,.118-1.039l.194-.2A5.088,5.088,0,0,1,107.514,22.941Z"/>
    <path d="M186.8,712.356c.3.516.087.975-.469,1.021s-1.988-.152-1.81-.552S186.5,711.84,186.8,712.356Z"/>
    <path d="M503.768,184.91c.722.126,1.266.6,1.207,1.064s-.646,1.15-1.224.893S503.045,184.785,503.768,184.91Z"/>
    <path d="M829.053,822.973c-.479.08-.856-.127-.84-.459a5.781,5.781,0,0,0-.195-1.4c-.08-.2-.243-.763-.172-.817a2.07,2.07,0,0,1,1.154.589C829.491,821.317,829.531,822.894,829.053,822.973Z"/>
    <path d="M265.4,160.291a.425.425,0,0,1-.2-.509c.051-.227.16-1.041.178-1.3s.355-1.087.689-.921,1,.941.767,1.368S265.559,160.343,265.4,160.291Z"/>
    <path d="M620.693,945.6c.2-.516.571-.849.818-.741s.859.7.77,1.063-.632,1.414-.981,1.441S620.489,946.113,620.693,945.6Z"/>
    <path d="M110.03,35.374c-.406-1.1-.284-2.1.27-2.223s1.868.894,1.519,1.7l-.454.131Z"/>
    <path d="M779.964,702.913c.289-.378.755-.306,1.037.159s-.233,1.756-.449,1.862S779.676,703.291,779.964,702.913Z"/>
    <path d="M632.685,206.415c.886.272,1.16.712.608.978s-1.913.74-1.989.554a5.088,5.088,0,0,1,0-1.815l.741.152Z"/>
    <path d="M181.465,53.171a4.688,4.688,0,0,1,1.241-.658c.681-.293,2.789-.344,3.178.534l-1.126.091-1.1.088A6.48,6.48,0,0,1,181.465,53.171Z"/>
    <path d="M155.88,45.5c.392-.9,1.011-1.457,1.374-1.234a1.48,1.48,0,0,1-.055,2.125l-.705-.477Z"/>
    <path d="M746.323,66.73c-.547.05-.9-.231-.786-.626a5.405,5.405,0,0,1,.619-1.43,1.193,1.193,0,0,1,.918.517C747.329,65.573,746.87,66.679,746.323,66.73Z"/>
    <path d="M330.634,704.785a.87.87,0,0,1-.2-1.189c.27-.341,1.287-.937,1.549-.428S331.012,705.1,330.634,704.785Z"/>
    <path d="M846.236,949.391c.168.338-.143.885-.691,1.216s-1.856-.741-1.6-1.228S846.067,949.053,846.236,949.391Z"/>
    <path d="M53.563,186.341c-.606-.265-.572-.55.075-.634s2.391-.193,2.306.238S54.168,186.605,53.563,186.341Z"/>
    <path d="M361.281,117.33c-.555.749-1.255,1.078-1.555.731a1.976,1.976,0,0,1-.332-1.507,1.476,1.476,0,0,1,1.609-.016l.171.487Z"/>
    <path d="M925.847,140.229c0-.1.392-.325.869-.5a7.491,7.491,0,0,1,1.86-.462,1.163,1.163,0,0,1-.15.922c-.221.324-1.166,1.191-1.48,1.016A4.634,4.634,0,0,1,925.847,140.229Z"/>
    <path d="M939.711,495.573c.087,1.618-.205,1.984-2.143,2.682C937.994,497.128,937.974,495.647,939.711,495.573Z"/>
    <path d="M949.505,504.261c-.165-.677.046-1.137.469-1.023s.794.471.42.686.639,1.464.733,1.781S949.671,504.938,949.505,504.261Z"/>
    <path d="M599.653,12.211c-.856.122-1.363-.03-1.127-.339a4.19,4.19,0,0,1,1.359-1.034c.214,0,.56.608.586,1.1l-.137.046Z"/>
    <path d="M921.142,51.278c-1,1.526-1,1.526-2.494.572C919.687,50.351,919.838,50.316,921.142,51.278Z"/>
    <path d="M611.2,548.96a3.866,3.866,0,0,1-.648-1.084c-.3-.615-.479-2.332.275-2.432l.159,1.032.125.807A4.625,4.625,0,0,1,611.2,548.96Z"/>
    <path d="M848.166,792.887c-.033-.126.183-.41.48-.63a1.74,1.74,0,0,1,1.542.139c.283.267-.112,1.506-.5,1.385A5.53,5.53,0,0,1,848.166,792.887Z"/>
    <path d="M160.868,546.574c-.35-.718-.359-1.275-.02-1.238a1.777,1.777,0,0,1,1.179,1.293c.076.648.237,2.319.194,2.335A25.268,25.268,0,0,1,160.868,546.574Z"/>
    <path d="M774.761,707.949a1.872,1.872,0,0,1-.543-1.7c.136-.567,1.6-.321,1.816.006S775.2,708.317,774.761,707.949Z"/>
    <path d="M14.151,46.253c-.423-.222-.336-.546.194-.719a13.006,13.006,0,0,1,1.881-.583,1.544,1.544,0,0,1-.045.864A2.51,2.51,0,0,1,14.151,46.253Z"/>
    <path d="M325.061,707.139c-.361-.11-.348-.451.028-.758a2.417,2.417,0,0,1,1.974-.279l.162.368.123.277c-.181.416-.471.75-.645.743A14.9,14.9,0,0,1,325.061,707.139Z"/>
    <path d="M51.788,835.037c-.43.207-.591-.047-.357-.565s1.542-1.341,1.629-1.114S52.218,834.829,51.788,835.037Z"/>
    <path d="M501.049,834.067c.474-.711.954-1.049,1.067-.75s.015,1.127-.417,1.325S500.575,834.778,501.049,834.067Z"/>
    <path d="M634.183,711.642a.68.68,0,0,1,1.126-.275c.4.349.983,1.41.517,1.667S633.959,712.142,634.183,711.642Z"/>
    <path d="M152,11.877c-1.26-.07-1.251,2.01-2.667.9C149.911,10.546,150.314,10.327,152,11.877Z"/>
    <path d="M955.8,729.165c-.335.312-.759.128-.943-.409s.668-1.367.951-1.319S956.13,728.853,955.8,729.165Z"/>
    <path d="M400.414,3.872c-.407.249-.648-.056-.534-.678a9.893,9.893,0,0,1,.534-2,1.13,1.13,0,0,1,.65.571A2.92,2.92,0,0,1,400.414,3.872Z"/>
    <path d="M10.749,76.966l-3.539.6C9.152,75.687,9.19,75.681,10.749,76.966Z"/>
    <path d="M917.762,745.282c1.843-.974,2.26-.755,3.445,1.624Z"/>
    <path d="M373.971,262.325l2.035-3.349C376.139,261.316,375.7,262.073,373.971,262.325Z"/>
    <path d="M593.751,92.229a1.171,1.171,0,0,1-1.552-.191c-.428-.454.338-1.651.657-1.67S594.178,91.88,593.751,92.229Z"/>
    <path d="M142.872,90.814a1.3,1.3,0,0,1,1.989.176V91.8a1.371,1.371,0,0,1-1.777-.232l-.145-.522Z"/>
    <path d="M26.385,112.483a.852.852,0,0,1-1.142.207c-.327-.249-.834-1.156-.463-1.511S26.685,112.12,26.385,112.483Z"/>
    <path d="M122.244,18.21c.048.324-.272.616-.713.649s-1.329-.243-1.114-.678S122.2,17.886,122.244,18.21Z"/>
    <path d="M606.766,44.424a.772.772,0,0,1-.3,1.375c-.679.259-1.166-1.317-.909-2.01l.69.362Z"/>
    <path d="M571.237,18.263a.585.585,0,0,1-.639.613c-.387,0-1.185-.311-.966-.692S571.2,17.926,571.237,18.263Z"/>
    <path d="M660.546,556.935a.976.976,0,0,1-1.247-.493c-.2-.461,1.067-1.192,1.352-1.125S661.03,556.745,660.546,556.935Z"/>
    <path d="M950.2,909.324l-2.513-2.047C950.307,907.082,950.307,907.082,950.2,909.324Z"/>
    <path d="M58.886,368.478c.658.669.849,1.335.423,1.48a1.725,1.725,0,0,1-1.855-.893l.738-.3Z"/>
    <path d="M621.252,20.908c-.023-.048.249-.272.605-.5s1.423-.615,1.672-.429.632.881.027.928A17.468,17.468,0,0,1,621.252,20.908Z"/>
    <path d="M475.436,112.487a.849.849,0,0,1-1.119.189c-.35-.236-.928-1.128-.556-1.492S475.7,112.148,475.436,112.487Z"/>
    <path d="M508.494,369.086c.349.342.281.739-.15.883s-1.559.2-1.7-.144S508.146,368.744,508.494,369.086Z"/>
    <path d="M608.383,947.6c-.355-.514-.3-.992.134-1.062s1.372.209,1.348.744S608.738,948.111,608.383,947.6Z"/>
    <path d="M301.3,57.164c1.255-1.457,2.223-1.306,3.117.613Z"/>
    <path d="M753.75,57.611l-3.467-.479C751.7,55.813,751.7,55.813,753.75,57.611Z"/>
    <path d="M813.71,757.115c-.213,1.643-.213,1.643-2.247,1.581C811.56,757.23,812.879,757.537,813.71,757.115Z"/>
    <path d="M362.352,758.4c-.045-.087.243-.351.641-.588s1.6-.5,1.681.006S362.4,758.485,362.352,758.4Z"/>
    <path d="M248.542,89.847c-.075-.041-.1-.338-.067-.66s.435-1.328.77-1.289,1.334.505.92.88A7.55,7.55,0,0,1,248.542,89.847Z"/>
    <path d="M712.624,789.408c.245.325-.026.734-.6.909s-.981-.96-.819-1.18S712.379,789.084,712.624,789.408Z"/>
    <path d="M587.666,149c1.672,1.137,1.026,2.479,1.493,3.8C588.307,152.373,587.932,151.261,587.666,149Z"/>
    <path d="M262.616,2.827c.276-.44.657-.454.846-.033s.348,1.585-.086,1.6S262.341,3.266,262.616,2.827Z"/>
    <path d="M341.229,14.7c1.177.592,2.3.722,2.329,2.2C342.217,16.9,341.381,16.5,341.229,14.7Z"/>
    <path d="M160.135,946.436c.331-.086.6.3.6.865s-.286,1.917-.635,1.411S159.8,946.522,160.135,946.436Z"/>
    <path d="M907.489,431.963c-.766,2.209-.766,2.209-2.019.765Z"/>
    <path d="M835.077,13.2c-.393-.09-.259-.649.3-1.243l.621-.016.258-.007C836.685,12.878,835.471,13.291,835.077,13.2Z"/>
    <path d="M462.73,45.406c.022-.118.4-.234.837-.258s1.7.185,1.612.533-.688,1.17-1.1.944A5.2,5.2,0,0,1,462.73,45.406Z"/>
    <path d="M325.145,877.341c2.244-.44,2.385-.278,1.737,1.628Z"/>
    <path d="M665.565,345.4a.524.524,0,0,1-.328.742,4.354,4.354,0,0,1-1.27.307,1,1,0,0,1,.076-.836C664.227,345.285,665.41,345.114,665.565,345.4Z"/>
    <path d="M863.012,845.524a1.631,1.631,0,0,1,.744,1.01c.1.415.081,1.425-.386.786S862.7,845.384,863.012,845.524Z"/>
    <path d="M569.2,68.282c-.3-.467-.254-.9.094-.963s1.364.049,1.447.39S569.5,68.75,569.2,68.282Z"/>
    <path d="M8.329,82.014c.035.125-.259.391-.653.592A2.383,2.383,0,0,1,6.1,82.445c-.021-.113.249-.481.648-.568A3.4,3.4,0,0,1,8.329,82.014Z"/>
    <path d="M217.627,72.383c-.484-.033-.542-.184-.129-.335a5.545,5.545,0,0,1,1.567-.374A2.448,2.448,0,0,1,217.627,72.383Z"/>
    <path d="M697.579,88.544a.583.583,0,0,1,.634-.6c.349.03,1.431.461.989.837S697.579,88.9,697.579,88.544Z"/>
    <path d="M174.993,20.356c.333.253.11.493-.5.533a21.733,21.733,0,0,1-2.275.054c-.05-.05.1-.375.448-.611A3.774,3.774,0,0,1,174.993,20.356Z"/>
    <path d="M433.32,189.171c-.083.078-.432,0-.775-.171a5.944,5.944,0,0,1-1.22-.772,1.2,1.2,0,0,1,.661-.463c.335-.092,1.375-.143,1.432.131A3.536,3.536,0,0,1,433.32,189.171Z"/>
    <path d="M346.528,820.227c.764,1.336.061,1.914-.875,2.6C344.89,821.6,345.206,820.863,346.528,820.227Z"/>
    <path d="M386.126,11.518a1.194,1.194,0,0,1,1.18.515c.132.328.191,1.352-.264,1.294S385.609,11.563,386.126,11.518Z"/>
    <path d="M762.264,822.224a2.145,2.145,0,0,0-.424.063c-.244.048-1.42-.289-1.5-.965s1.648-1.124,1.357-.65S762.253,822.237,762.264,822.224Z"/>
    <path d="M790.067,14.9a2.587,2.587,0,0,1,2.679,1.93C791.175,17.033,790.6,16.291,790.067,14.9Z"/>
    <path d="M262.173,788.469a1.016,1.016,0,0,1,1.351.429c.268.488-.729,1.36-.962,1.343S261.7,788.721,262.173,788.469Z"/>
    <path d="M101.843,796.1c2.507.069,2.525.086,2.49,2.036Z"/>
    <path d="M400.057,793.9a1.03,1.03,0,0,1-.278-1.38c.281-.48,1.481-.109,1.606.108S400.491,794.177,400.057,793.9Z"/>
    <path d="M273.867,791.657c.229,1.1.52,2.06-1.072,2.206C272.4,792.814,272.513,792.034,273.867,791.657Z"/>
    <path d="M203.407,161.764c.742.092,1.1.346.8.564s-1.543.085-1.836.119S202.666,161.672,203.407,161.764Z"/>
    <path d="M114.641,77.292c.226-.35.57-.486.766-.3s.525.886.306,1.154-.981.933-1.18.849S114.415,77.643,114.641,77.292Z"/>
    <path d="M124.677,184.6c-.412.308-.608.1-.435-.465s.743-1.633.977-1.435S125.09,184.3,124.677,184.6Z"/>
    <path d="M114.522,223.4c-1.588-1.676-1.588-1.687,0-3.06Z"/>
    <path d="M35.265,227.6l1.91-1.54C37.137,228.409,36.944,228.585,35.265,227.6Z"/>
    <path d="M488.813,81.747c.27-.431.6-.588.729-.349s.273,1.237-.109,1.448a8.081,8.081,0,0,1-1.454.662A10.3,10.3,0,0,1,488.813,81.747Z"/>
    <path d="M336.8,696.97c-.643-1.985-.643-1.985,1.338-2.158Z"/>
    <path d="M78.1,403.013l2.465-1.244C79.9,403.866,79.9,403.866,78.1,403.013Z"/>
    <path d="M59.018,426.277l-.2,2.85C57.272,428.379,57.277,428.188,59.018,426.277Z"/>
    <path d="M211.387,557.257a1.433,1.433,0,0,1-.181-2.079C212.623,555.767,212.635,555.881,211.387,557.257Z"/>
    <path d="M379.172,106.979c1.39-1.632,1.39-1.632,2.769-.677C381.2,107.325,380.232,107.151,379.172,106.979Z"/>
    <path d="M755.932,529.841c-.358.013-.484-.239-.281-.561a3.52,3.52,0,0,1,1.01-.916,1.179,1.179,0,0,1,.887.212.748.748,0,0,1-.108.717A4.276,4.276,0,0,1,755.932,529.841Z"/>
    <path d="M856.031,40.961c.406.358.375.676-.068.7s-1.518-.089-1.547-.321S855.625,40.6,856.031,40.961Z"/>
    <path d="M835.069,761.64c.281-.4.653-.451.828-.108s.309,1.321-.1,1.4S834.789,762.042,835.069,761.64Z"/>
    <path d="M867.294,841.262c.006.363-.3.488-.683.277s-1.753-1.143-1.5-1.218,1.055-.215,1.374-.257S867.287,840.9,867.294,841.262Z"/>
    <path d="M794.725,823.18c-.535-1.559-.551-2.388.747-2.838C796.383,821.475,795.572,822.053,794.725,823.18Z"/>
    <path d="M533.847,933.2c.083-.057.407.151.718.463s1.024,1.427.606,1.5a1.393,1.393,0,0,1-1.2-.64A3.165,3.165,0,0,1,533.847,933.2Z"/>
    <path d="M174.719,66.025l-2.542,1.11C172.8,65.15,172.8,65.15,174.719,66.025Z"/>
    <path d="M121.994,68.276a.823.823,0,0,1-1.1.725l-.17-.207-.306-.372a1.1,1.1,0,0,1,.185-1.323l.159.079a3.145,3.145,0,0,1,1.085.905Z"/>
    <path d="M585.279,940.813c-.3.12-.615-.151-.706-.6s.01-1.615.485-1.3S585.577,940.693,585.279,940.813Z"/>
    <path d="M665.567,72.688c1.682-1.181,1.682-1.181,2.8-.738C667.576,72.634,667.052,73.663,665.567,72.688Z"/>
    <path d="M311.86,815.89l-3.756.88C309.18,815.249,310.524,815.544,311.86,815.89Z"/>
    <path d="M553.331,798.155l-2.071-1.725C553,795.726,553.531,796.194,553.331,798.155Z"/>
    <path d="M722.9,791.877c.008.918.348,2.044-1.192,1.927C721.159,792.658,721.762,792.1,722.9,791.877Z"/>
    <path d="M925.923,951.844a.849.849,0,0,1,1.068.276c.287.352-.548,1.334-.877,1.163S925.623,952.045,925.923,951.844Z"/>
    <path d="M238.621,8.091c-.273-.2-.146-.457.282-.564s1.451.387,1.308.583A2.187,2.187,0,0,1,238.621,8.091Z"/>
    <path d="M831.182,106.435l-2.574.7C829.4,105.484,829.4,105.484,831.182,106.435Z"/>
    <path d="M315.064,820.351c-.085.017-.14-.488-.122-1.122s1.254-1.887,1.5-1.764-.2,1.189-.388,1.54A7.982,7.982,0,0,1,315.064,820.351Z"/>
    <path d="M891.548,479.306c.191.221.677.788,1.221,1.421C891.21,481.086,891.919,479.37,891.548,479.306Z"/>
    <path d="M381.757,44.7c.083.079-.068.4-.337.716s-1.1.83-1.079.25S381.674,44.626,381.757,44.7Z"/>
    <path d="M948.169,554.644c-.129-.353.546-.377,1.5-.053l-.187.75-.057.228C948.978,555.723,948.3,555,948.169,554.644Z"/>
    <path d="M857.314,6.405l.514-2.681C859.163,5.21,859.163,5.21,857.314,6.405Z"/>
    <path d="M867.992,363.762c-.355-.132-.2-.131.345,0s.814-1.055.814-.729S868.347,363.894,867.992,363.762Z"/>
    <path d="M481.719,272.635a1.193,1.193,0,0,1,.2.691c.022.323-.237,1.2-.627,1.164s-.653-1.018-.5-1.243S481.63,272.578,481.719,272.635Z"/>
    <path d="M32.673,272.64a.927.927,0,0,1,.181.652,7.318,7.318,0,0,1-.1,1.272c-.053.042-.355-.1-.583-.255s-.681-.773-.5-1.011S32.574,272.583,32.673,272.64Z"/>
    <path d="M123.6,259.767l-2.609,2.49C121.071,260.331,121.717,259.668,123.6,259.767Z"/>
    <path d="M711.75,2.794c.293-.392.635-.362.761.067s.138,1.583-.268,1.549S711.457,3.186,711.75,2.794Z"/>
    <path d="M135.767,938.078c.526,1.038.864,1.705,1.3,2.571C135.285,940.441,135.285,940.441,135.767,938.078Z"/>
    <path d="M184.527,232.853l-2.471-.2C183.438,231.029,183.438,231.029,184.527,232.853Z"/>
    <path d="M116.63,940.785a2.465,2.465,0,0,1,.55-1.055c.336-.452,1.513.94,1.074,1.072A3.252,3.252,0,0,1,116.63,940.785Z"/>
    <path d="M807.039,217.466c.017.154-.322.3-.752.319s-1.488-.087-.992-.31S807.023,217.312,807.039,217.466Z"/>
    <path d="M403.8,1.822c.261.064.335.428.166.809s-.71.7-.781-.231l.572-.538Z"/>
    <path d="M647.165,195.505c.2-.076.343.132.318.463s-.7.816-1.239.935l-.5.029-.055,0a.781.781,0,0,1,.217-.782C646.089,196.034,646.965,195.581,647.165,195.505Z"/>
    <path d="M441.216,943.9c-1.262,1.683-1.91,1.212-2.458-.154Z"/>
    <path d="M198.075,195.262c.069,1.707.069,1.707-1.564,1.555C196.186,195.32,197.905,196.157,198.075,195.262Z"/>
    <path d="M40.881,81.96c.239.275.092.672-.327.883s-1.684.525-1.385-.022S40.642,81.686,40.881,81.96Z"/>
    <path d="M239.271,83.492l-.921-2.584C240.533,81.4,240.533,81.4,239.271,83.492Z"/>
    <path d="M61.424,695.341c-.91-.109-1.708-.534-1.773-.944s1.14-.6,1.6-.45l.024.2Z"/>
    <path d="M203.738,72.4c-.034.093-.431.021-.881-.159s-1.4-.653-.86-.547A5.521,5.521,0,0,1,203.738,72.4Z"/>
    <path d="M395.273,775.355l1.647,2.357C395.369,777.762,395.369,777.762,395.273,775.355Z"/>
    <path d="M949.555,638.78l-2.519-1.806C948.516,636.418,948.516,636.418,949.555,638.78Z"/>
    <path d="M774.769,877.127c1.592.007,1.592.007,1.382,1.685C775.406,878.42,774.454,878.359,774.769,877.127Z"/>
    <path d="M855.824,740.913c.173-1.988.173-1.988,2.155-1.015Z"/>
    <path d="M944.382,49.037c.6-2.085,1.582-.657,2.547-1.171C946.313,49.512,945.409,48.9,944.382,49.037Z"/>
    <path d="M929.808,441.09c-1.579.044-1.155-1.473-2.44-1.759C928.918,439.02,928.921,439.023,929.808,441.09Z"/>
    <path d="M86.086,934.147c.279.269.267.6-.026.727s-.984.125-1.107-.2-.353-1.319-.2-1.354A4.227,4.227,0,0,1,86.086,934.147Z"/>
    <path d="M352.408,831.424c.123.459-.1.723-.492.585s-1.2-.71-.979-1S352.284,830.965,352.408,831.424Z"/>
    <path d="M567.28,940.532c.536.041.564.174.062.295a5.541,5.541,0,0,1-1.643.208A2.945,2.945,0,0,1,567.28,940.532Z"/>
    <path d="M37.506,5.377l-2.037-.891C36.668,3.58,37.37,3.823,37.506,5.377Z"/>
    <path d="M484.705,227.905c-.237-.16-.186-.507.113-.771a4.765,4.765,0,0,1,1.2-.818.854.854,0,0,1,.065.8C485.937,227.451,484.942,228.065,484.705,227.905Z"/>
    <path d="M25.466,115.478l-2.388,1.643C23.13,116.512,24.428,115.535,25.466,115.478Z"/>
    <path d="M785.768,696.9c-.515-2.029-.512-2.03,1.466-2.022Z"/>
    <path d="M632.084,232.7a.6.6,0,0,1-.095-.913c.258-.268,1.193-.006,1.239.122S632.4,232.935,632.084,232.7Z"/>
    <path d="M804.942,314.94c-.338.813-.922,1.271-1.3,1.019s.168-1.445.521-1.629l.128.1Z"/>
    <path d="M877.334,277.193c.446.258.714.614.6.79a1,1,0,0,1-1.02.29C876.579,278.089,876.887,276.934,877.334,277.193Z"/>
    <path d="M257.675,790.028c.723-1.9.723-1.9,2.252-.285Z"/>
    <path d="M908.13,793.025c-1,.575-.775,2.1-2.286,1.348C906.057,793.387,906.347,792.655,908.13,793.025Z"/>
    <path d="M489.514,945.781c.631,1.094.834,1.8.131,2.8C488.933,947.676,488.442,947.011,489.514,945.781Z"/>
    <path d="M632.749,52.663c.993-1.226,1.6-1.348,2.325,0Z"/>
    <path d="M882.38,632.29c-.839-.43-2.575.568-2.66-1.788Z"/>
    <path d="M79.116,75.792l.5,2.7C78.239,77.347,78.239,77.347,79.116,75.792Z"/>
    <path d="M509.8,693.647c.442-.112.684.116.537.508a1.8,1.8,0,0,1-1.191.868C508.81,695.03,509.355,693.758,509.8,693.647Z"/>
    <path d="M7.8,66.456c.222-1.251.946-1.329,1.938-1.109C9.579,66.733,8.89,66.883,7.8,66.456Z"/>
    <path d="M528.548,78.187c-1.142-.981-1.142-.981-.333-2.443C528.357,76.79,528.453,77.489,528.548,78.187Z"/>
    <path d="M314.619,821.148a1.927,1.927,0,0,1,.445-.8c.086-.017.208.277.083.69S314.459,821.569,314.619,821.148Z"/>
    <path d="M722.663,759.612c1.847-.781,1.847-.781,2.465.665Z"/>
    <path d="M841.525,269.831c-.4,1.665-1.427,1.21-2.349.977Z"/>
    <path d="M856.448,689.593a.25.25,0,0,1-.19.3,2.673,2.673,0,0,1-1.2-.556l-.375-.343-.021-.019c.278-.352.674-.5.878-.33A7.21,7.21,0,0,1,856.448,689.593Z"/>
    <path d="M162.443,936.548c.1-.018.3.175.442.43s.35,1.212-.026,1.223a.8.8,0,0,1-.766-.612A2.093,2.093,0,0,1,162.443,936.548Z"/>
    <path d="M369.327,280.754l-1.039-1.358C369.734,279.2,369.734,279.2,369.327,280.754Z"/>
    <path d="M308.42,289.268c.194.265.033.5-.358.523s-1.315-.13-1.186-.389S308.226,289,308.42,289.268Z"/>
    <path d="M307.2,250.872c-.159-1.124-.159-1.124.865-2.164C308.642,249.94,307.663,250.286,307.2,250.872Z"/>
    <path d="M638.054,228.056c.12-.035.308.243.416.618s.084,1.122-.3.825S637.933,228.09,638.054,228.056Z"/>
    <path d="M189.449,230.444c-1.044-.811-.849-1.567-.767-2.657A1.941,1.941,0,0,1,189.449,230.444Z"/>
    <path d="M131.9,220.69c.257-.343.619-.535.8-.428s.553.667.259.923S131.647,221.032,131.9,220.69Z"/>
    <path d="M762.606,750.446l-1.929-1.059C762.213,748.458,762.3,749.451,762.606,750.446Z"/>
    <path d="M374.706,34.679c-.483-1.8.652-1.592,1.433-1.856C376.733,34.289,375.492,34.1,374.706,34.679Z"/>
    <path d="M786.9,739.725c-.423.2-.392.255.069.129s1.306-.325.788-.312l-.453.1Z"/>
    <path d="M40.486,946.064c.568.723,1.028,1.395.255,2.264C39.686,947.242,39.686,947.242,40.486,946.064Z"/>
    <path d="M519.275,29.669c-.308-1.678.631-1.413,1.872-1.2Z"/>
    <path d="M70.112,29.721c-.229-1.589.658-1.391,2.044-1.4Z"/>
    <path d="M652.07,161.3c0,.009.293.073.639.143a1.042,1.042,0,0,1,.577,1.441l-.928-.383c-.223-.092-.2-.784-.288-1.2Z"/>
    <path d="M3.512,28.774c-.358-.263-.3-.525.136-.583s1.289.04,1.289.3S3.87,29.037,3.512,28.774Z"/>
    <path d="M140.132,28.728l-.978-1.546C140.564,27.08,140.564,27.08,140.132,28.728Z"/>
    <path d="M684.72,185.147c.352-.661.694-1.3,1.068-2.009C686.664,184.554,686.664,184.554,684.72,185.147Z"/>
    <path d="M295.246,72.783c-.562-.219-.683-.457-.269-.53s1.314.267,1.15.867l-.449-.172Z"/>
    <path d="M799.621,831.319c-.035-.121.125-.356.356-.522s1.141-.524,1.2-.2-.047,1.158-.344,1.158A2.728,2.728,0,0,1,799.621,831.319Z"/>
    <path d="M623.469,42.953a.39.39,0,0,1,.212-.662c.324-.08,1.283-.04,1.141.332S623.676,43.237,623.469,42.953Z"/>
    <path d="M448.086,391.874c0,1,0,1-.742,1.848C446.874,392.706,446.874,392.706,448.086,391.874Z"/>
    <path d="M529.407,402.114c-.146,1.3-.487,2.022-1.851,1.325C527.687,402.478,528.134,401.978,529.407,402.114Z"/>
    <path d="M586.588,87.419c1.085-.436,1.085-.436,2.475,1.582Z"/>
    <path d="M486.488,5.356,484.37,4.45C485.828,3.735,485.828,3.735,486.488,5.356Z"/>
    <path d="M456.993,66.5c.113-1.391.881-1.326,1.809-1.122C458.618,66.642,457.979,66.834,456.993,66.5Z"/>
    <path d="M182.188,5.21,184,6.575C182.513,7.214,182.513,7.214,182.188,5.21Z"/>
    <path d="M632.776,6.8c-1.258.323-1.258.323-1.545-1.275C632.113,5.6,632.655,5.888,632.776,6.8Z"/>
    <path d="M916.779,858.824c1.147.363,1.782.869.357,1.834C916.994,859.932,916.887,859.378,916.779,858.824Z"/>
    <path d="M132.548,681.876c.067.12-.118.381-.41.582s-1.035.273-1-.282S132.481,681.756,132.548,681.876Z"/>
    <path d="M131.068,22.9c-.511.016-.817-.23-.682-.548s.6-1.056.749-.983S131.578,22.883,131.068,22.9Z"/>
    <path d="M687.647,8.152c-.283-.188-.166-.466.259-.617s1.393.371,1.252.573A2,2,0,0,1,687.647,8.152Z"/>
    <path d="M772.675,303.843a.592.592,0,0,1,.958.147c.213.373-.447,1.2-.589,1.21S772.361,304.135,772.675,303.843Z"/>
    <path d="M179.363,789.24l-1.1-1.884C180.027,787.394,180.118,787.535,179.363,789.24Z"/>
    <path d="M888.512,610.859c-.381,0-.653-.158-.6-.351s.513-.782.858-.608a6.105,6.105,0,0,1,1.174.725A5.545,5.545,0,0,1,888.512,610.859Z"/>
    <path d="M600.966,332.942c-.381.027-.533-.221-.338-.553s.849-.961,1.032-.69S601.348,332.914,600.966,332.942Z"/>
    <path d="M329.493,869.72c.39-.1.533.085.317.414s-.939,1.1-1.088.915S329.1,869.821,329.493,869.72Z"/>
    <path d="M53.954,543.961c.095.084.1.376.018.651s-.528,1-.734.819-.537-.794-.342-1.006S53.859,543.877,53.954,543.961Z"/>
    <path d="M71.965,541.514l2.172,1.164C72.7,543.57,72.7,543.57,71.965,541.514Z"/>
    <path d="M301.179,614.209c1.629,1.084,1.062,1.606,0,2.311Z"/>
    <path d="M7.89,52.091a1.174,1.174,0,0,1,1.591-.977l-.072.868c-.013.155-.53.441-.718.378Z"/>
    <path d="M949.129,643.6c.044-.056.368.075.721.293s1.226.87,1.159.968a.772.772,0,0,1-.844-.115A5.453,5.453,0,0,1,949.129,643.6Z"/>
    <path d="M355.847,217.349c-.011-.107.3-.231.693-.274s1.129.041.763.285A2.009,2.009,0,0,1,355.847,217.349Z"/>
    <path d="M706.8,789.262c1.1-.739,1.1-.739,2.324.857Z"/>
    <path d="M627.066,787.206c1.717-.075,2.1.531,1.511,2.152Z"/>
    <path d="M616.359,642.036c.76-1.31,1.393-.367,2.191-.082C617.706,643,617.054,642.608,616.359,642.036Z"/>
    <path d="M169.273,642.365c-.025.129-.331.178-.68.109s-1.066-.378-.645-.5S169.3,642.237,169.273,642.365Z"/>
    <path d="M236.885,184.605c-.443.11-.718-.055-.613-.367s.521-1.067.687-.989S237.327,184.5,236.885,184.605Z"/>
    <path d="M83.686,303.2c.15.042.173.463.051.935l-.2.382-.037.071c-.415-.119-.694-.415-.621-.658S83.537,303.157,83.686,303.2Z"/>
    <path d="M323.254,305.432l.624-2.117C325.073,304.54,325.073,304.54,323.254,305.432Z"/>
    <path d="M818.129,322.867c0,.108-.192.221-.435.253s-.889-.01-.9-.161.176-.541.422-.529S818.125,322.759,818.129,322.867Z"/>
    <path d="M777.377,871.365c.747-1.828.747-1.828,2-1.612Z"/>
    <path d="M198.607,273.35a5.37,5.37,0,0,1-.394.479c-.223.254-1.052.665-1.206.183S198.6,273.341,198.607,273.35Z" fill="#fff"/>
    <path d="M152.116,331.176c1.153,1.432,1.153,1.432-.512,2.035Z"/>
    <path d="M935.239,4.714c-.08-.064.075-.405.345-.757s1-1.091.8-.582A3.517,3.517,0,0,1,935.239,4.714Z"/>
    <path d="M824.5,260.591c1.066,1.386-.694,1.225-.875,1.926C823.476,261.562,823.476,261.562,824.5,260.591Z"/>
    <path d="M458.351,358.717l-2.068-.8C457.418,357.119,457.418,357.119,458.351,358.717Z"/>
    <path d="M406.066,688.409c.14-.2.44-.117.668.19s.687,1.092.6,1.181-.431.009-.71-.146S405.927,688.611,406.066,688.409Z"/>
    <path d="M578.17,365.144c.987-1.518,1.5-.751,2.046-.168Z"/>
    <path d="M30.185,369.412c.043-1.047.3-1.658.573-1.358s.749,1.149.585,1.361h-.095Z"/>
    <path d="M611.452,936.608c.1-.043.31.144.461.416s.262.968-.157.818S611.348,936.651,611.452,936.608Z"/>
    <path d="M663.257,251.727c.4-.17.521-.058.268.248s-.917.933-1.023.851S662.857,251.9,663.257,251.727Z"/>
    <path d="M757.048,248.793c.379,1-.125,1.563-.911,2.24C755.542,249.657,756.5,249.331,757.048,248.793Z"/>
    <path d="M391.927,379.027l-1.126-1.356C391.963,377.519,391.963,377.519,391.927,379.027Z"/>
    <path d="M113.974,248.978c-.036-1.768-.036-1.768,1.679-1.9Z"/>
    <path d="M273.537,759.662c2.061-.826,2.061-.826,2.3.485Z"/>
    <path d="M606.618,766.458c-1.085.211-1.567-.282-1.751-1.246C606.428,764.57,605.76,766.4,606.618,766.458Z"/>
    <path d="M330.7,834.261c-.853,1.655-.853,1.655-2.062,1.008Z"/>
    <path d="M480.17,131.157l-1.893-1.287C479.1,130.018,480.247,129.579,480.17,131.157Z"/>
    <path d="M588.4,28.264c.112-.747.493-1.214.846-1.039s.334,1.267.093,1.455l-.13-.058Z"/>
    <path d="M419.672,81.722c-.079,1.4-.079,1.4-1.718,1.832Z"/>
    <path d="M29.513,129.622a2.247,2.247,0,0,1,1.122-.135c.572.017.526,1.679.121,1.409A5.177,5.177,0,0,1,29.513,129.622Z"/>
    <path d="M684.163,40.12V37.4C684.82,38.692,684.82,38.692,684.163,40.12Z"/>
    <path d="M622.523,65.677c.385.034.461.218.168.408s-1.092.563-1.145.421S622.138,65.643,622.523,65.677Z"/>
    <path d="M96.483,96.919c-.277-1.455-.277-1.455,1.266-1.846Z"/>
    <path d="M823.74,34.719c.138-1.772.138-1.772,2.061-1.285Z"/>
    <path d="M110.805,78.323l2.431-1.088C112.5,77.725,112.3,79.453,110.805,78.323Z"/>
    <path d="M540.97,152.657c.173-.627.346-1.253.554-2C542.8,151.739,542.039,152.268,540.97,152.657Z"/>
    <path d="M376.393,151.043c0-.072.3-.132.672-.132a5.575,5.575,0,0,1,1.358.132c0,.072-.3.264-.667.264A4.421,4.421,0,0,1,376.393,151.043Z"/>
    <path d="M316.778,34.214c.1.04.048.346-.114.678s-.693,1.1-.657.628A2.4,2.4,0,0,1,316.778,34.214Z"/>
    <path d="M175.385,43.452c-.2.373-.5.422-.671.109s-.351-1.175-.028-1.245S175.582,43.079,175.385,43.452Z"/>
    <path d="M611.06,44.349c-.4.177-.786.141-.852-.081a2.642,2.642,0,0,1-.044-.9c.042-.114.348-.486.515-.427S611.462,44.171,611.06,44.349Z"/>
    <path d="M3.9,73.2c-.671-.78-.883-1.387-.472-1.349s1.325.371,1.3.675l-.091.074Z"/>
    <path d="M496.754,54.789l1.422,1.09C497.064,56.446,497.064,56.446,496.754,54.789Z"/>
    <path d="M352.143,126.232c1.375.494,1.993.832,1.428,2.234Z"/>
    <path d="M79.069,55.781c.038-.386.31-.482.6-.215s.776,1,.523,1.131S79.03,56.166,79.069,55.781Z"/>
    <path d="M591.694,45.075l1.05,1.9C591.542,46.628,591.542,46.628,591.694,45.075Z"/>
    <path d="M608.464,51.986c.084-.425.306-.548.493-.273s.491,1.1.284,1.254S608.379,52.411,608.464,51.986Z"/>
    <path d="M528.088,55.791c0-.416.244-.543.541-.284s.823,1.021.561,1.162S528.088,56.207,528.088,55.791Z"/>
    <path d="M542.615,133.35c-.1-.029-.158-.26-.129-.512s.255-.875.434-.821.562.381.454.609S542.716,133.378,542.615,133.35Z"/>
    <path d="M138.4,149.124c1.667.574,1.582,1.427,1.1,2.927Z"/>
    <path d="M167.759,22.187,169.4,24C168.1,24.2,167.5,23.965,167.759,22.187Z"/>
    <path d="M958.777,131.687c-.437.676-.775,1.2-1.216,1.882C957.248,131.851,957.248,131.851,958.777,131.687Z"/>
    <path d="M653.832,60.018c-.051-.1.121-.3.382-.445s.953-.282.8.116S653.882,60.116,653.832,60.018Z"/>
    <path d="M781.509,296.758c.046.088-.152.276-.44.418a3.944,3.944,0,0,1-1.109.389c-.034-.069.1-.381.378-.542A2.463,2.463,0,0,1,781.509,296.758Z"/>
    <path d="M578.146,292.87c-.043-.119.108-.3.335-.395s.877-.243.937-.1.017.576-.228.652A1.688,1.688,0,0,1,578.146,292.87Z"/>
    <path d="M779.584,834.548c.059.054-.016.3-.166.556s-.739.887-.933.779-.614-.665-.266-.866A4.623,4.623,0,0,1,779.584,834.548Z"/>
    <path d="M181.434,894.515c.311-.385.622-.771,1.093-1.353C183.09,894.535,182.538,894.739,181.434,894.515Z"/>
    <path d="M757.468,289.864l-1.611-.6C756.874,288.514,756.874,288.514,757.468,289.864Z"/>
    <path d="M896.5,569.822l-1.987-.722C895.378,568.272,895.378,568.272,896.5,569.822Z"/>
    <path d="M162.216,43.465a.423.423,0,0,1,.052.638c-.182.158-.964.489-1.022.115a4.239,4.239,0,0,1-.047-1.29A3.072,3.072,0,0,1,162.216,43.465Z"/>
    <path d="M909.744,942.4c-.31-.252-.292-.522.039-.6s1.131-.032,1.131.256S910.054,942.656,909.744,942.4Z"/>
    <path d="M101.918,722.576l-2.361.744C100.264,722.007,100.963,721.93,101.918,722.576Z"/>
    <path d="M817.484,279.515c-.136-.281.158-.36.653-.175s.5,1.359.32,1.283A4.318,4.318,0,0,1,817.484,279.515Z"/>
    <path d="M590.014,37.516c-.091-.054-.02-.314.158-.578s.762-.779.761-.351S590.1,37.57,590.014,37.516Z"/>
    <path d="M837.721,56.335l1.412,1.1C837.944,58.057,837.545,57.757,837.721,56.335Z"/>
    <path d="M763.353,752.569c-.44.07-.618-.094-.4-.365s.81-.834.913-.774S763.793,752.5,763.353,752.569Z"/>
    <path d="M775.336,924.1l-2.107.175C774.18,923.377,774.18,923.377,775.336,924.1Z"/>
    <path d="M863.827,750.686c.05.126-.145.313-.433.415s-1.083.286-1.124.183a.646.646,0,0,1,.357-.6C862.907,750.556,863.777,750.559,863.827,750.686Z"/>
    <path d="M945.845,114.5c-.383.021-.546-.192-.363-.473s.885-.992,1.035-.776S946.228,114.483,945.845,114.5Z"/>
    <path d="M315.376,750.2c.423-1.119.612-1.81,1.712-.7Z"/>
    <path d="M71.93,123.476l1.89-.12C72.9,124.165,72.9,124.165,71.93,123.476Z"/>
    <path d="M108.806,111.731c-.262-.262-.215-.373.1-.247s1.046.5,1.01.583A1.667,1.667,0,0,1,108.806,111.731Z"/>
    <path d="M9.449,358.579l-2.473-.674C8.236,356.861,8.754,357.522,9.449,358.579Z"/>
    <path d="M883.985,915.688c-.056.078-.385-.058-.729-.3s-.886-.809-.436-.71A2.483,2.483,0,0,1,883.985,915.688Z"/>
    <path d="M753.73,353.763c-.325-1.722-.256-1.8,1.231-1.337Z"/>
    <path d="M767.739,348.311c-.072.057-.256-.047-.409-.231s-.323-.825-.039-1.016l.015.019.254.321A1.116,1.116,0,0,1,767.739,348.311Z"/>
    <path d="M919.7,106.96c1.167-.677,1.167-.677,1.974.454Z"/>
    <path d="M495.284,337.063h2.5C496.674,337.941,496.05,338.1,495.284,337.063Z"/>
    <path d="M48.791,337.12c-1.061.787-1.659.962-2.651,0Z"/>
    <path d="M497.938,334.232a1.813,1.813,0,0,1-.76.084c-.416,0-1.518-.01-1.523-.022a4.2,4.2,0,0,1,.751-.107A8.041,8.041,0,0,1,497.938,334.232Z"/>
    <path d="M463.605,904.091c.383.348.536.761.341.918s-.73.045-1.031-.178l-.135-.282c-.044-.09.4-.585.521-.55Z"/>
    <path d="M82.49,518.537c.2.195.182.444-.046.554a1.029,1.029,0,0,1-.815-.057c-.112-.106-.3-.53-.172-.687S82.287,518.342,82.49,518.537Z"/>
    <path d="M485.057,100.756c.056.073-.051.267-.238.432s-.743.514-.818.413a.525.525,0,0,1,.1-.614A1.886,1.886,0,0,1,485.057,100.756Z"/>
    <path d="M166.947,537.093c1.386-.716,1.656.255,2.067.942Z"/>
    <path d="M587.606,905.427c.259-.912.435-1.53.62-2.179C588.837,904.618,588.837,904.618,587.606,905.427Z"/>
    <path d="M120.745,940.571c-.031.042-.181.034-.333-.018a1.869,1.869,0,0,1-.594-.621c-.092-.183-.357-.2-.056-.049A4.422,4.422,0,0,1,120.745,940.571Z"/>
    <path d="M66.608,727.846c-.869.9-1.476.841-2.628,0Z"/>
    <path d="M532.669,303.077c.5.323.714.772.471,1s-.884.416-1.053.3-.094-.583.14-.992l.324-.226Z"/>
    <path d="M545.07,95.976c-.08-.13.083-.357.361-.5s1.057-.454,1.115-.359a.7.7,0,0,1-.256.677C546.034,95.972,545.15,96.107,545.07,95.976Z"/>
    <path d="M795.305,628.436c.121.024.151.345.065.713a4.455,4.455,0,0,1-.484,1.307.785.785,0,0,1-.236-.741C794.708,629.339,795.183,628.412,795.305,628.436Z"/>
    <path d="M139.319,227.64a.85.85,0,0,1-1.26-.15l.07-.141a1.368,1.368,0,0,1,.787-.613c.113-.035.564.466.516.6Z"/>
    <path d="M69.222,213.243c.064-.093.4.03.742.274s1.2.957,1.148,1.044a.846.846,0,0,1-.845-.115C69.915,214.208,69.158,213.336,69.222,213.243Z"/>
    <path d="M30.072,96.409c-1.488.085-1.223-.689-1.174-1.37C30.153,94.767,29.6,95.9,30.072,96.409Z"/>
    <path d="M707.077,949.135a.423.423,0,0,1,.638.01.549.549,0,0,1,.041.7c-.149.159-.673.464-.813.338S706.919,949.325,707.077,949.135Z"/>
    <path d="M147.759,950.325l-2.348-.718C146.464,949.413,146.464,949.413,147.759,950.325Z"/>
    <path d="M882.43,49.01c.01-.1.34-.106.732-.021s1.462.412.924.412A4.216,4.216,0,0,1,882.43,49.01Z"/>
    <path d="M603.562,49.361c-.075-.021-.043-.324.071-.673a7.173,7.173,0,0,1,.512-1.246.928.928,0,0,1,.025.7A3.947,3.947,0,0,1,603.562,49.361Z"/>
    <path d="M457.352,50.368l1.456,1.872C457.173,51.943,457.173,51.943,457.352,50.368Z"/>
    <path d="M315.353,815.886c-.082.008-.222-.321-.311-.73a12.331,12.331,0,0,1-.256-1.517,1.52,1.52,0,0,1,.38.7A4.752,4.752,0,0,1,315.353,815.886Z"/>
    <path d="M18.248,247.418c-.174.275-.42.271-.547-.01s-.266-1.121.039-1.093S18.422,247.142,18.248,247.418Z"/>
    <path d="M774.826,697.739c-1.794.326-1.5-.934-1.852-1.592Z"/>
    <path d="M475.828,864.112l-1.777.325C474.421,863.094,475.116,863.485,475.828,864.112Z"/>
    <path d="M478.18,93.48l2.32-.281C479.761,94.088,479.761,94.088,478.18,93.48Z"/>
    <path d="M580.147,22.761c-.518.18-.829.029-.69-.335s.534-1.1.659-1.064S580.666,22.582,580.147,22.761Z"/>
    <path d="M214.589,251.49c.087.074-.016.395-.23.714s-.94.967-.929.42S214.5,251.416,214.589,251.49Z"/>
    <path d="M557.543,148.194c-.623-.426-.885-.865-.583-.976s1.235-.124,1.2.291l-.118.13Z"/>
    <path d="M815.4,18.558c.063-.111.352-.1.643.026s.975.78.712,1.108l-.078-.029-.518-.193C815.611,19.19,815.333,18.669,815.4,18.558Z"/>
    <path d="M618.677,23.994c-1.739-.121-1.739-.121-1.418-1.734Z"/>
    <path d="M47.717,54.9c.107-.087.34.045.519.295s.43,1.075.158,1.277l-.025-.027L48,56.063A1.245,1.245,0,0,1,47.717,54.9Z"/>
    <path d="M25.736,41.811,24.254,40.5C25.625,40.552,25.625,40.552,25.736,41.811Z"/>
    <path d="M19.682,76.8c-.109.013-.2-.186-.2-.44a3.317,3.317,0,0,1,.109-.943c.06-.008.259.174.307.425S19.791,76.788,19.682,76.8Z"/>
    <path d="M312.229,821.481a4.813,4.813,0,0,0,.162-.629c.073-.334.562-1,.659-.92a.581.581,0,0,1-.043.7C312.79,820.868,312.213,821.492,312.229,821.481Z"/>
    <path d="M851.762,667.521c-.947,1.32-1.389.879-1.852-.413Z"/>
    <path d="M835.393,582.645c.671-.845,1.214-1.364,2.206-.638Z"/>
    <path d="M358.507,32.5c.286.211.3.477.022.591s-1.1.292-1.136.1S358.221,32.284,358.507,32.5Z"/>
    <path d="M37.984,85.639c-.39-.027-.448-.241-.129-.476s1.212-.644,1.233-.357S38.374,85.667,37.984,85.639Z"/>
    <path d="M295.962,9.622c.082.107-.065.329-.325.492s-1,.523-1.058.438a.634.634,0,0,1,.214-.647C295.033,9.72,295.88,9.515,295.962,9.622Z"/>
    <path d="M345.4,867.253c-.019-.113.139-.24.351-.281s.791-.021.812.085-.1.429-.312.468S345.421,867.367,345.4,867.253Z"/>
    <path d="M873.171,637.2c-.2.94-.313,1.456-.484,2.254C871.633,638.416,871.97,637.943,873.171,637.2Z"/>
    <path d="M31.651,93.867H29.212C30.512,93.256,30.512,93.256,31.651,93.867Z"/>
    <path d="M890.682,10.94c.082.1-.053.339-.3.531s-.956.63-1.025.547a.658.658,0,0,1,.175-.683C889.766,11.126,890.6,10.839,890.682,10.94Z"/>
    <path d="M345.2,693.1c.318-.36.542-.064.5.656l-.051.452v.011C345.418,694.2,344.881,693.457,345.2,693.1Z"/>
    <path d="M939.372,109.919c.109.922-.033,1.612-.953.782Z"/>
    <path d="M354.99,450.393c.047-.055.226.018.4.162s.6.564.559.611a.478.478,0,0,1-.467-.078C355.3,450.952,354.944,450.448,354.99,450.393Z"/>
    <path d="M99.47,647.653c-.052-.093.126-.284.395-.425a3.586,3.586,0,0,1,1.053-.391c.041.066-.063.378-.321.545A2.157,2.157,0,0,1,99.47,647.653Z"/>
    <path d="M557.416,111.658c.013-.122.248-.173.523-.112s.989.3.975.394a.568.568,0,0,1-.549.285C558.092,112.192,557.4,111.781,557.416,111.658Z"/>
    <path d="M585.868,428.271c-.078.1-.292.06-.476-.1s-.625-.634-.571-.711a.535.535,0,0,1,.573-.041C585.6,427.551,585.945,428.167,585.868,428.271Z"/>
    <path d="M331.086,4.69l-1.653.617C329.905,4.24,329.905,4.24,331.086,4.69Z"/>
    <path d="M487.1,85.59c-.279-.084-.309-.31-.067-.5s.838-.532.954-.461a.635.635,0,0,1,.14.547C488.092,85.361,487.379,85.673,487.1,85.59Z"/>
    <path d="M311.684,749.3c1.447-.669,1.7-.1,1.725,1.038Z"/>
    <path d="M366.49,18.432l1.533.518C367.187,19.675,367.187,19.675,366.49,18.432Z"/>
    <path d="M401.272,668.088a.531.531,0,0,1,.317-.751c.324-.111.943.555.913.7S401.421,668.39,401.272,668.088Z"/>
    <path d="M398.723,115.645l-1.38-1.2C398.479,114.112,399.033,114.345,398.723,115.645Z"/>
    <path d="M554.6,72.8a3.732,3.732,0,0,0-.661.251c-.359.156-.616-.559.053-.4l.608.147Z"/>
    <path d="M154.43,584.234c-.379.929-.685,1.637-1.686.424Z"/>
    <path d="M862.236,570.475c.1-.1.347,0,.552.227s.683.889.6.97a.636.636,0,0,1-.7-.078C862.472,571.387,862.138,570.577,862.236,570.475Z"/>
    <path d="M118.084,711.6s-.259,0-.577,0-1.155,0-1.155,0,.259-.008.576-.008S118.084,711.6,118.084,711.6Z"/>
    <path d="M235.63,37.34l.113,2.5C234.97,38.672,234.97,38.672,235.63,37.34Z"/>
    <path d="M269.721,595.722a.414.414,0,0,1,.564-.234c.22.1.781.615.436.767S269.632,595.952,269.721,595.722Z"/>
    <path d="M761.686,605.528c-.079-.077.059-.278.306-.447s.911-.449.76-.137A1.626,1.626,0,0,1,761.686,605.528Z"/>
    <path d="M483.352,79.731c.117,0,.239.247.273.544a3.128,3.128,0,0,1-.032,1.107c-.085.014-.361-.2-.427-.517S483.236,79.729,483.352,79.731Z"/>
    <path d="M839.733,553.551a.324.324,0,0,1-.15.534,1.336,1.336,0,0,1-1.183-.334l.077-.149.112-.216A1.474,1.474,0,0,1,839.733,553.551Z"/>
    <path d="M787.9,551.382l-1.959-.478C786.628,549.522,787.107,550.005,787.9,551.382Z"/>
    <path d="M478.341,96.4c-.093.008-.209-.193-.258-.448a3.168,3.168,0,0,1-.063-.983.584.584,0,0,1,.469.1,1.446,1.446,0,0,1,.276.753A1.223,1.223,0,0,1,478.341,96.4Z"/>
    <path d="M324.328,610.856l.121,1.731C323.128,612.141,323.476,611.514,324.328,610.856Z"/>
    <path d="M141.082,37.611c-.093-.04-.064-.3.063-.583s.619-.975.633-.53A1.658,1.658,0,0,1,141.082,37.611Z"/>
    <path d="M138.412,905.326l.553-1.473C139.919,904.753,139.919,904.753,138.412,905.326Z"/>
    <path d="M345.5,630.361c.1-.666.192-1.332.349-2.424C346.848,629.205,345.951,629.748,345.5,630.361Z"/>
    <path d="M14.864,904.485a.328.328,0,0,1,.009.545,1.249,1.249,0,0,1-1.07-.134l-.029-.225-.026-.2A1.088,1.088,0,0,1,14.864,904.485Z"/>
    <path d="M24.393,527.891c.233.155.179.441-.119.634s-.953.3-1.054.183-.242-.553-.088-.7A1.765,1.765,0,0,1,24.393,527.891Z"/>
    <path d="M796.007,867.565l-1.435.18C794.987,866.461,794.987,866.461,796.007,867.565Z"/>
    <path d="M339.306,739.408l-2.2.712C337.536,739.174,337.536,739.174,339.306,739.408Z"/>
    <path d="M880.112,495.475c0,.28-.167.365-.371.189s-.623-.759-.421-.856S880.112,495.2,880.112,495.475Z"/>
    <path d="M792.183,487.682c-.077-.11.057-.323.3-.473s.915-.489.968-.418a.633.633,0,0,1-.2.6C793.031,487.582,792.26,487.792,792.183,487.682Z"/>
    <path d="M214.709,36.328c0,.111-.247.2-.557.2a3.243,3.243,0,0,1-1.13-.16.655.655,0,0,1,.553-.361C213.883,35.986,214.706,36.217,214.709,36.328Z"/>
    <path d="M322.2,633.94c-.1.063-.367-.24-.584-.672l-.175-.4,0-.009a.543.543,0,0,1,.639.162C322.216,633.207,322.3,633.877,322.2,633.94Z"/>
    <path d="M924.9,636.311a.3.3,0,0,1,.48,0,.876.876,0,0,1,.061.953l-.229.033-.151.021A1.261,1.261,0,0,1,924.9,636.311Z"/>
    <path d="M243.9,50.117c-.064-.316.08-.493.321-.393s.771.533.645.742S243.966,50.434,243.9,50.117Z"/>
    <path d="M355.209,314.529c.212.2.206.452-.013.562s-.963.33-.965.139S355,314.331,355.209,314.529Z"/>
    <path d="M102.733,154.979c.26-1.262.736-1.415,1.95-1.112Z"/>
    <path d="M810.2,15c.272.223.329.513.125.644s-.928.418-.977.228S809.922,14.775,810.2,15Z"/>
    <path d="M914.119,60.806l-1.974.745C912.46,60.792,912.79,60.1,914.119,60.806Z"/>
    <path d="M94.92,132.6c-.868.616-1.548.505-1.511-.246l.089-.435a1.072,1.072,0,0,1,.748.03Z"/>
    <path d="M571.486,301.779c-1.071.248-1.483-.077-1.014-1.153Z"/>
    <path d="M122.517,302.222c-1.187-.2-1.6-.484-1.01-1.667Z"/>
    <path d="M573.417,300.42c0-.129.218-.245.488-.258s.99.027,1,.116a.617.617,0,0,1-.469.421C574.157,300.751,573.418,300.549,573.417,300.42Z"/>
    <path d="M125.879,300.416c.021.089-.169.236-.423.327s-.988.165-.746-.155A1.287,1.287,0,0,1,125.879,300.416Z"/>
    <path d="M117.509,34.392c-.257-.308-.153-.468.232-.354s1.167.521,1.05.7S117.766,34.7,117.509,34.392Z"/>
    <path d="M503.158,214.11c-.008-.079.2-.168.463-.2s.962-.041.974.042a.752.752,0,0,1-.47.479l-.264.03-.22.024A.735.735,0,0,1,503.158,214.11Z"/>
    <path d="M806.431,33.161c-.078-.091.008-.3.189-.462s.779-.446.874-.348.186.489-.023.63A1.807,1.807,0,0,1,806.431,33.161Z"/>
    <path d="M825.4,150.96l2.244-.257C826.878,152.091,826.042,150.929,825.4,150.96Z"/>
    <path d="M347.1,44.954c-.124.191-.478.1-.786-.2l.034-.064.166-.3c.26-.293.577-.455.7-.36S347.229,44.763,347.1,44.954Z"/>
    <path d="M801.8,33.88c-.273-.654-.417-1-.58-1.393C802.405,32.438,802.405,32.438,801.8,33.88Z"/>
    <path d="M441.431,134.136c.048-.152.265-.194.482-.094s.695.621.6.9l-.062-.006-.4-.04A.849.849,0,0,1,441.431,134.136Z"/>
    <path d="M865.849,832.5c.139-.022.327.22.416.537s.239,1.184.135,1.219a.733.733,0,0,1-.605-.474C865.67,833.455,865.709,832.525,865.849,832.5Z"/>
    <path d="M742.1,135.856c-.12.027-.24-.167-.266-.43a2.69,2.69,0,0,1,.05-.981c.078-.015.34.153.408.4S742.222,135.83,742.1,135.856Z"/>
    <path d="M898.837,139.587l1.869-1.514C900.354,139.362,900.354,139.362,898.837,139.587Z"/>
    <path d="M360.483,16.365c-.05-1.532-.05-1.532,1.31-1.116Z"/>
    <path d="M469.179,143.212c-1.418.551-1.787.174-1.7-1.075Z"/>
    <path d="M109.205,146.913c-.222,1.041-.68,1.4-1.68,1.19C107.643,146.876,108.333,146.892,109.205,146.913Z"/>
    <path d="M133.056,802.031c.126-.035.341.282.478.7l.057.394.008.054c-.328.108-.657.013-.731-.211S132.931,802.066,133.056,802.031Z"/>
    <path d="M271.789,227.107l-.527,2.181C270.569,228.161,270.82,227.7,271.789,227.107Z"/>
    <path d="M234.447,808.777c.056.139-.279.386-.746.55l-.434.106a1.771,1.771,0,0,1-.211-.554l.377-.232A.916.916,0,0,1,234.447,808.777Z"/>
    <path d="M682.983,809.408c-.145.19-.535.082-.867-.239l.046-.111.119-.287c.293-.233.627-.36.743-.282A1.137,1.137,0,0,1,682.983,809.408Z"/>
    <path d="M160.352,52.368c.247.22.238.516-.019.658s-.942.247-.942-.087S160.1,52.149,160.352,52.368Z"/>
    <path d="M326.289,924.158h-2.11C325.3,923.374,325.3,923.374,326.289,924.158Z"/>
    <path d="M728.31,175.383h1.778C729.153,176.783,728.672,175.26,728.31,175.383Z"/>
    <path d="M436.58,380c.083.085-.059.317-.316.515s-.982.667-1.039.6a.664.664,0,0,1,.211-.639C435.667,380.258,436.5,379.914,436.58,380Z"/>
    <path d="M628.3,66.067c.463.388.628.771.366.851a1.193,1.193,0,0,1-.862-.15.962.962,0,0,1,.112-.889l.075.037Z"/>
    <path d="M154.967,378.314a.858.858,0,0,1-1.2.018l.042-.105.116-.288a.8.8,0,0,1,1.01-.06l.015.22Z"/>
    <path d="M521.106,123.757c-.011-.113.209-.237.488-.276s.924-.026.611.142S521.117,123.869,521.106,123.757Z"/>
    <path d="M743.028,822.352c.041-.268.28-.3.532-.065a4.342,4.342,0,0,1,.743.839.586.586,0,0,1-.513.18C743.546,823.272,742.988,822.621,743.028,822.352Z"/>
    <path d="M802.278,128.239l-.823-1.848C802.967,127.3,802.967,127.3,802.278,128.239Z"/>
    <path d="M152.9,183.889l-1.262-1.123C152.923,182.537,152.923,182.537,152.9,183.889Z"/>
    <path d="M131.432,364.568c-.85.765-1.4.789-1.742-.387Z"/>
    <path d="M19.416,127.534c.041.1-.161.243-.449.323a3.154,3.154,0,0,1-1.1.143c-.026-.081.129-.373.4-.47A2.216,2.216,0,0,1,19.416,127.534Z"/>
    <path d="M468.376,127.533c.04.1-.165.246-.454.326a3.43,3.43,0,0,1-1.1.158c-.025-.074.134-.355.409-.461A2.169,2.169,0,0,1,468.376,127.533Z"/>
    <path d="M293.879,823.092c-.051-.741.139-1.148.421-.9s.58,1.081-.036,1.258l-.166-.153Z"/>
    <path d="M196.807,42.01c.1-.006.217.212.256.484s.017.91-.167.6S196.706,42.015,196.807,42.01Z"/>
    <path d="M922.19,131.675c-.041.1-.35.111-.687.016a7.191,7.191,0,0,1-1.209-.434,1.065,1.065,0,0,1,.7-.1C921.365,131.193,922.23,131.572,922.19,131.675Z"/>
    <path d="M193.6,35.4c-.328.194-.566.078-.53-.258s.337-1.07.6-.944S193.93,35.2,193.6,35.4Z"/>
    <path d="M143.161,47.1c-.114.063-.333-.167-.487-.512a3.98,3.98,0,0,1-.387-1.343.755.755,0,0,1,.662.425A2.831,2.831,0,0,1,143.161,47.1Z"/>
    <path d="M387.1,197.783c.105.121,0,.362-.245.535s-.844.68-.918.6a.739.739,0,0,1,.08-.727C386.214,197.955,387,197.662,387.1,197.783Z"/>
    <path d="M506.68,49.273c.044-.105.409-.028.812.171l.352.2a1.442,1.442,0,0,1-.167.377l-.39-.1C506.866,49.774,506.636,49.378,506.68,49.273Z"/>
    <path d="M664.2,840.964c-.094.257-.3.191-.462-.148s.439-.834.549-.8S664.3,840.706,664.2,840.964Z"/>
    <path d="M415.866,770.731c-.027-.118.124-.248.334-.289s.784-.051.807.072-.084.475-.292.512S415.892,770.849,415.866,770.731Z"/>
    <path d="M246.219,161.013l.9,1.4C246.052,162.558,246.052,162.558,246.219,161.013Z"/>
    <path d="M652.075,161.309s-.231.257-.509.581-1.123.993-1.134.616S652.077,161.313,652.075,161.309Z"/>
    <path d="M22.5,45.459c.409-1.11.809-1.411,1.9-.74Z"/>
    <path d="M58.651,49.228a.607.607,0,0,1-.392.954l-.175-.095-.2-.107a.682.682,0,0,1,.341-.824l.241.041Z"/>
    <path d="M762.993,818.621c.06.124-.076.286-.3.359s-.881.157-.938.061.077-.289.279-.416S762.932,818.5,762.993,818.621Z"/>
    <path d="M947.184,701.19c.093.069.055.253-.085.411s-.561.54-.624.5a.458.458,0,0,1-.031-.489C946.555,701.426,947.091,701.122,947.184,701.19Z"/>
    <path d="M568.211,48.068V49.92C567.468,49.362,566.991,48.96,568.211,48.068Z"/>
    <path d="M627.976,828.368c0,.114-.2.228-.448.253s-.907.012-.923-.084a.534.534,0,0,1,.418-.428C627.286,828.065,627.977,828.253,627.976,828.368Z"/>
    <path d="M286.314,820.434c.171.193.075.5-.213.692l-.15-.054-.256-.093c-.2-.253-.3-.559-.218-.679S286.144,820.242,286.314,820.434Z"/>
    <path d="M146.614,680.319c-.071-.018-.09-.241-.043-.5s.253-.907.352-.884a.492.492,0,0,1,.223.539A2.317,2.317,0,0,1,146.614,680.319Z"/>
    <path d="M307.7,825.157a1.722,1.722,0,0,0-.184-.542c-.123-.278-.084-.843-.061-.531A5.426,5.426,0,0,0,307.7,825.157Z"/>
    <path d="M312.627,818.693c-.01-.122.182-.222.426-.222s.893.067.9.148a.535.535,0,0,1-.412.371C313.3,819.03,312.636,818.814,312.627,818.693Z"/>
    <path d="M314.755,752.51c-.388.379-.793.271-.9-.24l.113-.2.166-.3c.5-.379.9-.273.894.234l-.115.214Z"/>
    <path d="M265.25,755.752c-.082.04-.195-.094-.252-.3s-.145-.757-.068-.778a.434.434,0,0,1,.391.258A1.455,1.455,0,0,1,265.25,755.752Z"/>
    <path d="M670.3,71.475c-.06.089-.261.048-.448-.091a3.328,3.328,0,0,1-.638-.586.572.572,0,0,1,.492.01C669.925,70.9,670.356,71.386,670.3,71.475Z"/>
    <path d="M85.867,759.642a.161.161,0,0,1,.081-.214,1.112,1.112,0,0,1,.605.113c.222.095.776.434.758.5a.427.427,0,0,1-.487.1A5.345,5.345,0,0,1,85.867,759.642Z"/>
    <path d="M119.629,851.847c-.281.031-.36-.138-.176-.376s.794-.757.85-.5A1.087,1.087,0,0,1,119.629,851.847Z"/>
    <path d="M887.966,66.31c-.112.181-.521.043-.908-.307l-.011-.189c-.009-.157.343-.495.462-.465l.236.06A1.041,1.041,0,0,1,887.966,66.31Z"/>
    <path d="M158.052,762.979c0,.006.145.885.331,1.953l-1.566.086.068.064c.587-.591,1.392-1.062,1.167-2.1Z"/>
    <path d="M156.851,765.05a2.529,2.529,0,0,0,.157.459.65.65,0,0,1-.905.725l-.079-.76-.01-.1A4.636,4.636,0,0,0,156.851,765.05Z"/>
    <path d="M556.983,8.853c-.026.1-.252.093-.5-.011a4.783,4.783,0,0,1-.891-.462.655.655,0,0,1,.523-.072C556.377,8.359,557.009,8.754,556.983,8.853Z"/>
    <path d="M107.869,8.884c-.04.091-.251.074-.469-.038a3.736,3.736,0,0,1-.762-.49.61.61,0,0,1,.5-.044C107.378,8.378,107.909,8.793,107.869,8.884Z"/>
    <path d="M685.276,736.531c.089.04.1.231.032.425s-.384.658-.483.626a.416.416,0,0,1-.205-.478C684.711,736.906,685.187,736.492,685.276,736.531Z"/>
    <path d="M590.53,63.036c.021-.1.253-.128.517-.059s.942.326.923.416a.536.536,0,0,1-.551.223C591.153,63.558,590.509,63.138,590.53,63.036Z"/>
    <path d="M645.84,41.932c.069,0,.163.235.207.525s.021,1.181-.185,1.112a.747.747,0,0,1-.347-.687A2.445,2.445,0,0,1,645.84,41.932Z"/>
    <path d="M313.524,783.92a.263.263,0,0,1,.057.444,1.09,1.09,0,0,1-.956.125l.01-.118.024-.256A.8.8,0,0,1,313.524,783.92Z"/>
    <path d="M8.638,8.447a1.79,1.79,0,0,1-.784.09,10.884,10.884,0,0,1-1.578-.09,1.284,1.284,0,0,1,.781-.18A8.265,8.265,0,0,1,8.638,8.447Z"/>
    <path d="M191.763,858.806a.581.581,0,0,1-1-.144l.068-.189.073-.206a.973.973,0,0,1,.958.146l-.037.141Z"/>
    <path d="M874.755,858.742a.4.4,0,0,1,.066.547c-.128.157-.548.09-.886-.123l-.2-.277-.051-.07A.932.932,0,0,1,874.755,858.742Z"/>
    <path d="M141.661,860.141c-.336.034-.382-.177-.1-.469s1.161-.97,1.113-.624A1.819,1.819,0,0,1,141.661,860.141Z"/>
    <path d="M105.084,73.2c-.032.107-.251.111-.488.011s-.835-.432-.805-.515a.521.521,0,0,1,.541-.161C104.57,72.615,105.115,73.1,105.084,73.2Z"/>
    <path d="M6.456,58.369c.064-.093.274-.076.466.039s.55.644.365.924l-.041-.019-.357-.166C6.524,58.905,6.393,58.462,6.456,58.369Z"/>
    <path d="M25.1,864.018c-.041-.129.15-.285.424-.347s1.022-.15,1.053-.056a.593.593,0,0,1-.369.517C25.948,864.229,25.145,864.147,25.1,864.018Z"/>
    <path d="M180.382,790.429c.029.075-.089.213-.264.307s-.7.2-.761.1-.045-.411.162-.469A1.7,1.7,0,0,1,180.382,790.429Z"/>
    <path d="M887.329,794.157c.08-.037.234.114.342.335s.316.838.221.88a.494.494,0,0,1-.516-.258A1.859,1.859,0,0,1,887.329,794.157Z"/>
    <path d="M796.03,43.839a.613.613,0,0,1,.007,1.075l-.3.153-.029.015a1.348,1.348,0,0,1-.052-1.074l.222-.1Z"/>
    <path d="M581.674,801.623c.956.863,1.578,1.321.244,1.93C581.845,802.978,581.788,802.527,581.674,801.623Z"/>
    <path d="M760.723,815.846c-.015.106-.328.193-.7.193a4.966,4.966,0,0,1-1.345-.145c0-.081.3-.313.69-.34A2.9,2.9,0,0,1,760.723,815.846Z"/>
    <path d="M271.726,936.219c0-.075.272-.137.605-.137a4.249,4.249,0,0,1,1.209.137c0,.076-.273.275-.605.275A3.367,3.367,0,0,1,271.726,936.219Z"/>
    <path d="M722.594,936.361c-.015.075-.3.154-.626.174s-1.346-.061-1.233-.244a1.152,1.152,0,0,1,.862-.3A2.352,2.352,0,0,1,722.594,936.361Z"/>
    <path d="M842.726,13.986c-.009.082-.248.111-.53.065a6.591,6.591,0,0,1-1.02-.235.889.889,0,0,1,.535-.129A2.236,2.236,0,0,1,842.726,13.986Z"/>
    <path d="M226.752,29.882c.235-.358.549-.5.7-.318s.273.808.075,1.027l-.062-.034a1.769,1.769,0,0,1-.655-.585Z"/>
    <path d="M179.734,334.5c-.049-.055.066-.237.256-.4s.733-.554.787-.492a.478.478,0,0,1-.156.516A2.151,2.151,0,0,1,179.734,334.5Z"/>
    <path d="M946.014,29.1a.264.264,0,0,1-.039.456c-.184.093-.648.182-.735.049a.987.987,0,0,1,0-.727C945.344,28.753,945.851,28.945,946.014,29.1Z"/>
    <path d="M629.189,334.317c.067.06-.043.284-.244.5s-.782.738-.845.686a.571.571,0,0,1,.131-.592A2.43,2.43,0,0,1,629.189,334.317Z"/>
    <path d="M84.264,352.672c.055-.088.264-.048.464.089s.687.563.639.639a.5.5,0,0,1-.551.049C84.609,353.324,84.209,352.76,84.264,352.672Z"/>
    <path d="M92.027,152.82l.359-2.112C93.515,151.522,93.272,152.068,92.027,152.82Z"/>
    <path d="M480.864,369.669l-1.761-.677C479.905,368.148,479.905,368.148,480.864,369.669Z"/>
    <path d="M308.889,926.421a.65.65,0,0,1-.993-.049l-.01-.235-.006-.159a.68.68,0,0,1,.868.1l.106.259Z"/>
    <path d="M55.513,214.13c.012.115-.2.223-.467.242a3.441,3.441,0,0,1-1-.047c-.013-.064.173-.288.443-.357S55.5,214.016,55.513,214.13Z"/>
    <path d="M257.86,950.342c-.094-.059-.087-.283.017-.5s.485-.716.618-.635.369.453.226.646S257.954,950.4,257.86,950.342Z"/>
    <path d="M758.14,203.668c-.059-.554.154-.828.473-.608s.93.773.846.876a1.173,1.173,0,0,1-.955.144l-.2-.226Z"/>
    <path d="M115.009,121.474c.431-.126.531-.022.223.231s-1.037.683-1.146.569S114.579,121.6,115.009,121.474Z"/>
    <path d="M17.625,119.582c-.082-.01-.149-.19-.149-.4s.094-.756.208-.747.388.2.356.415S17.706,119.593,17.625,119.582Z"/>
    <path d="M136.483,410.717c-.034-.062.075-.241.242-.4s.662-.457.729-.322.081.559-.119.642A1.849,1.849,0,0,1,136.483,410.717Z"/>
    <path d="M894.978,35.68c.091,0,.178.218.191.489s-.036.987-.142.989a.54.54,0,0,1-.384-.485A2.085,2.085,0,0,1,894.978,35.68Z"/>
    <path d="M309.3,202.932l1.6,1.139C309.323,203.927,309.323,203.927,309.3,202.932Z"/>
    <path d="M166.885,147.853c.073-.027.264.233.425.58l.12.324.007.019a.371.371,0,0,1-.5-.161C166.848,148.434,166.812,147.881,166.885,147.853Z"/>
    <path d="M20,143.2c-1.462.376-1.941.153-1.537-1.077Z"/>
    <path d="M893.88,268.9a.391.391,0,0,1-.547-.108c-.139-.186-.3-.747-.178-.831s.542-.177.657-.011S894.041,268.773,893.88,268.9Z"/>
    <path d="M639.129,138.557c.091.018.151.255.135.527a3.817,3.817,0,0,1-.173,1.008.418.418,0,0,1-.326-.237,2.847,2.847,0,0,1-.066-.82C638.725,138.886,639.038,138.54,639.129,138.557Z"/>
    <path d="M839.509,944.465c-.209-.305-.241-.642-.07-.749a.711.711,0,0,1,.665.046.564.564,0,0,1-.215.678l-.26.017Z"/>
    <path d="M326.71,275.023a.648.648,0,0,1,.147,1.079l-.216.015-.208.015a.854.854,0,0,1-.138-.979l.214-.067Z"/>
    <path d="M942.586,278.884c.555-1.134.96-1.449,2.092-.836Z"/>
    <path d="M134.831,286.269c-.107.183-.3.254-.427.157a.76.76,0,0,1,0-.866l.259-.207.065-.052C134.99,285.483,134.939,286.085,134.831,286.269Z"/>
    <path d="M584.294,285.833c.035.134-.135.288-.377.342s-.905.106-.934,0a.582.582,0,0,1,.324-.537C583.543,285.556,584.259,285.7,584.294,285.833Z"/>
    <path d="M238.6,286.308c.016.059-.208.136-.5.172s-1.435.022-1.17-.2a1.836,1.836,0,0,1,1.042-.371A2.19,2.19,0,0,1,238.6,286.308Z"/>
    <path d="M342.329,148.677c.161.165.034.546-.282.845l-.253.035c-.15.02-.528-.387-.494-.521l.066-.252C341.639,148.58,342.168,148.511,342.329,148.677Z"/>
    <path d="M762.813,285.98c.021-.081.261-.1.535-.05a4.439,4.439,0,0,1,.986.287.668.668,0,0,1-.543.145C763.5,286.338,762.792,286.061,762.813,285.98Z"/>
    <path d="M879.406,940.235c.052-.039.212,0,.355.08a1.487,1.487,0,0,1,.422.656c.022.153-.061.794-.287.448A3.783,3.783,0,0,1,879.406,940.235Z"/>
    <path d="M322.371,297.637l.449,1.463C321.308,298.888,322.121,298.18,322.371,297.637Z"/>
    <path d="M71.114,150.917c-.089-.1,0-.3.2-.448s.781-.473.842-.4a.558.558,0,0,1-.093.578C71.894,150.819,71.2,151.016,71.114,150.917Z"/>
    <path d="M566.711,34.006c.064-.065.335.029.6.209s.182.768-.129,1.072l-.321-.541-.107-.18A.538.538,0,0,1,566.711,34.006Z"/>
    <path d="M31.942,325.527a2.264,2.264,0,0,1-.027-.492c0-.272.012-.987.027-.987a1.53,1.53,0,0,1,.054.491C32,324.81,31.957,325.527,31.942,325.527Z"/>
    <path d="M62.73,326.552c-.033-.046.12-.26.338-.476s.842-.743.9-.692a.811.811,0,0,1-.02.667l-.189.152-.268.216A1.187,1.187,0,0,1,62.73,326.552Z"/>
    <path d="M757.7,330.089l1.094,1.344C757.622,331.816,757.16,331.664,757.7,330.089Z"/>
    <path d="M643.264,34.509c.276.122.309.347.075.5s-.984.4-1.022.138S642.989,34.387,643.264,34.509Z"/>
    <path d="M435,189.531c1.189-.527,1.49-.025,1.79,1.043Z"/>
    <path d="M703.8,159.437c-.065-.105.108-.322.384-.482s1.048-.515,1.1-.433a.679.679,0,0,1-.291.633C704.734,159.337,703.869,159.542,703.8,159.437Z"/>
    <path d="M358.58,10.773c.033.1-.283.238-.7.31l-.384.018-.049,0a.407.407,0,0,1,.26-.529A1.521,1.521,0,0,1,358.58,10.773Z"/>
    <path d="M601.771,584.712l1.762-.538C603.125,585.349,602.763,585.775,601.771,584.712Z"/>
    <path d="M101.642,585.262c.055-.087.258-.052.45.077s.656.537.6.62a.483.483,0,0,1-.545.073C101.955,585.907,101.586,585.349,101.642,585.262Z"/>
    <path d="M247.659,168.024l1.425,1.066C248,169.185,248,169.185,247.659,168.024Z"/>
    <path d="M799.62,875.072c0-.118.2-.231.452-.252s.926,0,.94.084-.161.357-.425.408S799.623,875.189,799.62,875.072Z"/>
    <path d="M351.824,875.129c0,.113-.194.2-.428.2s-.855-.062-.861-.137a.531.531,0,0,1,.416-.343C351.192,874.817,351.825,875.016,351.824,875.129Z"/>
    <path d="M773.234,612.158c-.093,0-.19-.183-.215-.418a3.274,3.274,0,0,1,0-.874c.051-.01.24.158.307.4S773.328,612.152,773.234,612.158Z"/>
    <path d="M880.173,614.961c.205.068.2.177-.011.241s-.629.1-.624-.02S879.967,614.893,880.173,614.961Z"/>
    <path d="M330.071,628.239c-.061.09-.264.067-.451-.049s-.6-.53-.51-.661.358-.128.537-.02S330.132,628.15,330.071,628.239Z"/>
    <path d="M601.293,182.464c.069-.071.243.011.388.183s.26.668-.064.718l-.248-.087-.154-.054A1.058,1.058,0,0,1,601.293,182.464Z"/>
    <path d="M745.042,9.591c.063.092-.09.3-.338.468s-.954.528-1.016.437a.6.6,0,0,1,.225-.634A2.152,2.152,0,0,1,745.042,9.591Z"/>
    <path d="M751.747,93.356l-.482-1.061C752.451,92.17,751.967,92.831,751.747,93.356Z"/>
    <path d="M886.268,869.973c.078.08.017.262-.135.4s-.643.41-.718.328-.156-.415,0-.546A1.362,1.362,0,0,1,886.268,869.973Z"/>
    <path d="M550.08,646.952c.043.07-.145.263-.417.429s-1.028.539-1.075.461.056-.413.332-.57A3.016,3.016,0,0,1,550.08,646.952Z"/>
    <path d="M267.77,661.9h-1.735C266.715,660.764,267.243,661.245,267.77,661.9Z"/>
    <path d="M776.634,665.721c.077.041,0,.256-.174.478a6.077,6.077,0,0,1-.7.776.69.69,0,0,1,.108-.51C776.005,666.219,776.556,665.68,776.634,665.721Z"/>
    <path d="M261.632,13.2c.125-.007.215.2.2.456s-.128.938-.212.939a.563.563,0,0,1-.351-.455C261.242,13.888,261.506,13.206,261.632,13.2Z"/>
    <path d="M941.134,201.381h-1.471C940.055,200.194,940.48,200.624,941.134,201.381Z"/>
    <path d="M136.051,428.031c-.244-.054-.23-.267.032-.473s.885.152.877.261S136.295,428.085,136.051,428.031Z"/>
    <path d="M937.086,920.128c-.144.149-.332.1-.419-.1a1.151,1.151,0,0,1,.012-.763c.082-.077.379-.172.462-.039A1.264,1.264,0,0,1,937.086,920.128Z"/>
    <path d="M613.208,917.055c.015.068-.136.168-.337.222s-.745.1-.764-.012.148-.253.34-.3A1.454,1.454,0,0,1,613.208,917.055Z"/>
    <path d="M542.628,101.937c.075-.239.453-.158.842.182l.034.224.035.224c-.194.283-.472.449-.618.371A1.457,1.457,0,0,1,542.628,101.937Z"/>
    <path d="M552.016,154.51c-.07-.1.05-.3.267-.435s.831-.445.883-.376a.568.568,0,0,1-.173.561C552.794,154.43,552.087,154.611,552.016,154.51Z"/>
    <path d="M26.515,499.614c-.131-.031-.19-.25-.131-.488s.353-.832.462-.816a.519.519,0,0,1,.321.514C27.118,499.072,26.645,499.644,26.515,499.614Z"/>
    <path d="M21.537,540.338l-1.466-.879C21.177,539.185,21.177,539.185,21.537,540.338Z"/>
    <path d="M662,36.109l1.605-.292C663.19,36.868,662.685,37.006,662,36.109Z"/>
    <path d="M256.271,158.662c.073.088-.073.3-.325.477s-.963.581-1.016.516a.62.62,0,0,1,.227-.6C255.39,158.862,256.2,158.573,256.271,158.662Z"/>
    <path d="M903.514,889.78c-.066-.059.041-.295.236-.523s.771-.777.844-.711a.591.591,0,0,1-.1.641A2.536,2.536,0,0,1,903.514,889.78Z"/>
    <path d="M361.958,99.179c-.07-.043-.026-.25.1-.461s.511-.726.589-.678a.483.483,0,0,1,.046.548C362.559,98.793,362.028,99.221,361.958,99.179Z"/>
    <path d="M630.709,894.654c-.1-.1.073-.478.4-.845l.328-.3.028-.025a.613.613,0,0,1,.178.77C631.491,894.466,630.814,894.751,630.709,894.654Z"/>
    <path d="M162.167,825.78c-.295-.3-.408-.618-.25-.712a.673.673,0,0,1,.594.037.64.64,0,0,1,.019.753l-.137-.03Z"/>
    <path d="M590.6,31.963c.006.068-.121.158-.284.2s-.6.063-.62-.048.086-.4.257-.4A1.308,1.308,0,0,1,590.6,31.963Z"/>
    <path d="M676.815,29.893c.149.127,0,.438-.325.69l-.069-.047-.226-.154c-.17-.273-.237-.578-.148-.678S676.666,29.766,676.815,29.893Z"/>
    <path d="M178.988,828.407c0,.1-.2.192-.437.194s-.877-.113-.887-.224.2-.228.44-.257S178.99,828.3,178.988,828.407Z"/>
    <path d="M866.965,951.472c.1-.034.235.094.293.285a2.071,2.071,0,0,1,.107.742.468.468,0,0,1-.4-.238C866.864,952.078,866.861,951.506,866.965,951.472Z"/>
    <path d="M803.157,829.6a.316.316,0,0,1,.459.04c.147.145.469.6.39.688a.626.626,0,0,1-.6.121C803.23,830.338,803.052,829.723,803.157,829.6Z"/>
    <path d="M779.831,4.683c.008.12-.191.251-.443.292s-.931.081-.951,0,.143-.363.406-.442S779.822,4.563,779.831,4.683Z"/>
    <path d="M513.561,25.779c-.039.055-.226.019-.416-.082s-.652-.439-.617-.506a.417.417,0,0,1,.48-.04C513.2,25.268,513.6,25.723,513.561,25.779Z"/>
    <path d="M595.4,949.531c.292.082.281.15-.027.15s-.957-.062-.943-.137A1.885,1.885,0,0,1,595.4,949.531Z"/>
    <path d="M111.075,27.914c.026-.059.2-.041.4.04s.669.35.636.42a.408.408,0,0,1-.457.088C111.465,28.369,111.048,27.972,111.075,27.914Z"/>
    <path d="M561.658,29.452c.294.233.426.521.294.641s-.508.311-.606.217a.911.911,0,0,1,.039-.74l.175-.076Z"/>
    <path d="M562.007,38.181c-.373,1.562-.935,1.093-1.725.332Z"/>
    <path d="M111.455,38.6c.009-.084.215-.153.457-.153s.85.275.81.612H112.7l-.429-.024C111.805,38.969,111.445,38.689,111.455,38.6Z"/>
    <path d="M436.6,870.919c-.339-.272-.506-.6-.371-.734a1.065,1.065,0,0,1,.962-.025l-.019.039a2.013,2.013,0,0,1-.522.68Z"/>
    <path d="M546.1,4.645c-.07.055-.24-.042-.378-.215s-.432-.7-.346-.778a.405.405,0,0,1,.535.07A1.83,1.83,0,0,1,546.1,4.645Z"/>
    <path d="M466.789,4.109c-.313.345-.721.386-.906.089l.05-.152.075-.228a.634.634,0,0,1,.8-.039l-.007.153Z"/>
    <path d="M578.517,38.232c0,.062-.176.124-.4.137s-.8-.129-.8-.345h.008l.392-.019A1.153,1.153,0,0,1,578.517,38.232Z"/>
    <path d="M170.023,865.264c-.073.016-.232-.231-.352-.549l-.078-.3,0-.019a.367.367,0,0,1,.5.171C170.143,864.745,170.1,865.248,170.023,865.264Z"/>
    <path d="M87.1,36.665c.065-.082.265-.039.445.1s.617.55.57.621a.488.488,0,0,1-.532.034C87.388,37.291,87.037,36.747,87.1,36.665Z"/>
    <path d="M470.3,886.236c-.1-.011-.145-.185-.1-.387s.243-.718.321-.7a.451.451,0,0,1,.237.416C470.738,885.76,470.4,886.247,470.3,886.236Z"/>
    <path d="M590.631,859.972c-.092-.07,0-.28.2-.466s.776-.635.835-.583a.557.557,0,0,1-.091.562C591.405,859.689,590.723,860.043,590.631,859.972Z"/>
    <path d="M647.427,3.045c.112,0,.189.174.171.377s-.267.747-.476.764V4.174l-.049-.379C647.044,3.374,647.315,3.041,647.427,3.045Z"/>
    <path d="M672.876,42c-.035-.055.109-.209.319-.342s.795-.437.831-.379-.041.319-.253.449A2.316,2.316,0,0,1,672.876,42Z"/>
    <path d="M569.5,851.572c.127.221.021.373-.236.34s-.974-.3-.774-.478A.925.925,0,0,1,569.5,851.572Z"/>
    <path d="M470.985,3.709a.31.31,0,0,1-.471-.027c-.117-.152-.2-.589-.129-.668s.383-.2.5-.082S471.126,3.571,470.985,3.709Z"/>
    <path d="M21.217,847.073a.218.218,0,0,1-.038.356.709.709,0,0,1-.552.031c-.074-.065-.192-.318-.1-.405A.854.854,0,0,1,21.217,847.073Z"/>
    <path d="M101.476,41.641c.052-.071.265.01.473.179s.718.669.671.733a.524.524,0,0,1-.558-.064C101.849,42.326,101.424,41.712,101.476,41.641Z"/>
    <path d="M21.178,3a.606.606,0,0,1,.924.178l.064.267c.014.056-.431.326-.492.278A1.582,1.582,0,0,1,21.2,3.06Z"/>
    <path d="M841.947,844.7c.038.087-.136.221-.387.3a3.36,3.36,0,0,1-.951.177c-.021-.058.114-.3.348-.4A1.832,1.832,0,0,1,841.947,844.7Z"/>
    <path d="M913.608,35.084c-.023-.1.134-.2.348-.243s.817.047.866.275l-.023.008-.364.121A.862.862,0,0,1,913.608,35.084Z"/>
    <path d="M506.776,841.855c.021.021.069-.155.1-.39a3.878,3.878,0,0,1,.224-.875c.051-.011.236.151.3.385s.1.85-.065.849A3.12,3.12,0,0,0,506.776,841.855Z"/>
    <path d="M634.194,34.584c1.118.88.689,1.28,0,1.743Z"/>
    <path d="M318.443,934.69c.073-.036.218.106.323.316s.31.8.225.834a.466.466,0,0,1-.48-.244A1.816,1.816,0,0,1,318.443,934.69Z"/>
    <path d="M767.729,936c-.083.018-.2-.14-.261-.353a1.994,1.994,0,0,1-.061-.836c.07-.031.317.072.383.3A1.621,1.621,0,0,1,767.729,936Z"/>
    <path d="M214.625,840.463c.213-.427.507-.651.653-.5a.613.613,0,0,1,.042.649c-.1.16-.564.438-.782.272l.022-.106Z"/>
    <path d="M249.323,34.529c-.072.032-.2-.115-.289-.327s-.263-.8-.2-.827a.447.447,0,0,1,.406.273A1.734,1.734,0,0,1,249.323,34.529Z"/>
    <path d="M868.583,834.024c.039-.029.183.113.319.317s.439.789.368.85a.355.355,0,0,1-.448-.206A3.534,3.534,0,0,1,868.583,834.024Z"/>
    <path d="M417.162,834.129c-.111.038-.247-.127-.3-.368a2.615,2.615,0,0,1-.076-.915.545.545,0,0,1,.425.327C417.308,833.4,417.273,834.091,417.162,834.129Z"/>
    <path d="M352.811,33.4c-.109.022-.23-.127-.269-.33s-.081-.758,0-.78a.473.473,0,0,1,.409.291C353.018,32.786,352.919,33.38,352.811,33.4Z"/>
    <path d="M319.483,32.864a.608.608,0,0,1,.92-.1l.071.231.035.112a.692.692,0,0,1-.839.04l-.143-.218Z"/>
    <path d="M686.964,306.847c-.008-.069.157-.15.367-.179s.772-.042.781.036a.416.416,0,0,1-.349.322A1.683,1.683,0,0,1,686.964,306.847Z"/>
    <path d="M920.651,309.84c.022-.07.193-.083.382-.028s.665.261.642.336a.4.4,0,0,1-.423.166C921.065,310.254,920.63,309.911,920.651,309.84Z"/>
    <path d="M368.612,323.161c-.11.118-.389,0-.619-.254l-.1-.241c-.029-.073.324-.415.388-.386l.251.116A.647.647,0,0,1,368.612,323.161Z"/>
    <path d="M768.3,330.905c-.006.068-.167.123-.357.123s-.94-.132-.745-.294a1.3,1.3,0,0,1,.764-.259A1.055,1.055,0,0,1,768.3,330.905Z"/>
    <path d="M890.951,15.98a.327.327,0,0,1,.413-.1.728.728,0,0,1,.127.8l-.212.07-.171.057A.728.728,0,0,1,890.951,15.98Z"/>
    <path d="M908.445,332.614c-.106-.048-.112-.264-.014-.48s.42-.767.5-.743a.516.516,0,0,1,.153.524C909.011,332.154,908.552,332.661,908.445,332.614Z"/>
    <path d="M420.17,13.975c.252.375.05.777-.449.895l-.127-.116c-.166-.151-.173-.511-.175-.782a.738.738,0,0,1,.541-.123Z"/>
    <path d="M47.716,334.358c-.328.032-.335-.007-.015-.088a5.227,5.227,0,0,1,1.058-.18A3.874,3.874,0,0,1,47.716,334.358Z"/>
    <path d="M938.8,17.272c-.261.266-.546.383-.635.26a.86.86,0,0,1-.062-.577.426.426,0,0,1,.593-.021l.068.223Z"/>
    <path d="M533.335,352.615c.054-.079.273-.015.486.144s.735.633.686.7a.537.537,0,0,1-.575-.017C533.713,353.3,533.28,352.7,533.335,352.615Z"/>
    <path d="M327.6,122.121a.587.587,0,0,1,.888.2l.065.282c.012.055-.435.317-.5.268a1.277,1.277,0,0,1-.435-.651Z"/>
    <path d="M73.926,391.769l.127-1.9C74.681,390.835,74.978,391.26,73.926,391.769Z"/>
    <path d="M466.662,119.643c-.139,0-.226-.2-.194-.435s.313-.872.52-.884l0,.025.077.428C467.123,119.255,466.8,119.644,466.662,119.643Z"/>
    <path d="M473.525,115.992a.368.368,0,0,1-.024-.493c.121-.136.639-.353.883-.184l-.018.118-.054.361A.531.531,0,0,1,473.525,115.992Z"/>
    <path d="M710.681,13.107c.075,0,.152.231.171.508a3.605,3.605,0,0,1-.047,1.036.489.489,0,0,1-.389-.213,2.082,2.082,0,0,1-.132-.825C710.315,13.471,710.606,13.1,710.681,13.107Z"/>
    <path d="M76.479,12.629c-.036.1-.348.049-.694-.108l-.3-.163a.975.975,0,0,1,.119-.308l.34.058C76.309,12.2,76.516,12.532,76.479,12.629Z"/>
    <path d="M534.43,111.331c.076-.084.284-.018.462.144s.612.641.569.7a.54.54,0,0,1-.541-.039C534.709,112,534.354,111.414,534.43,111.331Z"/>
    <path d="M162.177,461.573c.073-.025.176.115.229.312a3.015,3.015,0,0,1,.125.742c-.038.015-.209-.1-.3-.285S162.1,461.6,162.177,461.573Z"/>
    <path d="M136.737,471.109c-.038-.071.1-.218.3-.327s.767-.337.8-.268a.465.465,0,0,1-.233.452A1.669,1.669,0,0,1,136.737,471.109Z"/>
    <path d="M677.593,104.514c.078-.019.191.107.251.281s.132.655.024.683-.418-.046-.448-.229A1.329,1.329,0,0,1,677.593,104.514Z"/>
    <path d="M93.952,101.85c.116-.029.282.282.37.691l.044.375c0,.036-.367.155-.371.146l-.168-.362C93.666,102.291,93.837,101.88,93.952,101.85Z"/>
    <path d="M35.982,100.31c-.069,1.24-.337,1.576-1.43.953Z"/>
    <path d="M61.4,534.417c.1.038.111.207.025.374s-.508.529-.715.455l.005-.018.089-.322C60.933,534.559,61.3,534.378,61.4,534.417Z"/>
    <path d="M128.842,100.529a.325.325,0,0,1-.071.481c-.167.144-.68.462-.769.385a.6.6,0,0,1-.09-.619C128.04,100.588,128.714,100.41,128.842,100.529Z"/>
    <path d="M571.394,99.028c.048-.064.257-.025.464.086a3.516,3.516,0,0,1,.723.485.584.584,0,0,1-.5-.007C571.846,99.5,571.346,99.092,571.394,99.028Z"/>
    <path d="M583.177,99.556c-.088-.052-.09-.227-.006-.389s.53-.46.8-.3l-.016.042-.114.3A.73.73,0,0,1,583.177,99.556Z"/>
    <path d="M134.675,98.534c.078.025.061.358-.039.741l-.113.341a2.468,2.468,0,0,1-.371-.087l.066-.363C134.314,98.77,134.6,98.51,134.675,98.534Z"/>
    <path d="M806.322,10.8c-.03-.1.14-.209.377-.238a2.366,2.366,0,0,1,.887.024.5.5,0,0,1-.353.37C807.012,11.016,806.351,10.9,806.322,10.8Z"/>
    <path d="M698.075,169.01c-1.235.709-1.233-.084-1.6-1.031Z"/>
    <path d="M279.925,176.391c-.066-.033.032-.379.219-.768l.192-.341.006-.011a.4.4,0,0,1,.194.537C280.434,176,279.991,176.425,279.925,176.391Z"/>
    <path d="M136.882,181.385l-.15,2.093C136.2,182.565,135.4,182.16,136.882,181.385Z"/>
    <path d="M210.19,164.041a.262.262,0,0,1-.406-.022.812.812,0,0,1-.041-.844l.113.032.244.069A.664.664,0,0,1,210.19,164.041Z"/>
    <path d="M695.932,162.221c.121.287-.131.486-.56.445l-.24-.195-.159-.128a1.724,1.724,0,0,1,.216-.841C695.279,161.43,695.811,161.935,695.932,162.221Z"/>
    <path d="M668.687,194.726a.293.293,0,0,1-.388.043c-.108-.089-.283-.382-.188-.489s.433-.319.538-.235A.767.767,0,0,1,668.687,194.726Z"/>
    <path d="M559.676,15.022c.055-.061.218-.015.363.1s.5.468.459.522a.391.391,0,0,1-.43,0C559.905,15.532,559.621,15.082,559.676,15.022Z"/>
    <path d="M185.888,212.933l.6-1.211C187.061,212.78,187.061,212.78,185.888,212.933Z"/>
    <path d="M266.575,153.3c.083.034.1.213.034.4s-.319.627-.426.569-.314-.34-.226-.5S266.492,153.266,266.575,153.3Z"/>
    <path d="M464.823,152.123c.312-.247.656-.326.764-.177s.171.584.084.657a.687.687,0,0,1-.716-.16l-.1-.252Z"/>
    <path d="M20.846,150.956c.02.065-.14.181-.355.259s-.8.212-.828.126a.448.448,0,0,1,.31-.415A1.957,1.957,0,0,1,20.846,150.956Z"/>
    <path d="M520.175,150.963c-.1-.085-.036-.295.144-.466s.709-.578.779-.522a.527.527,0,0,1-.017.568C520.932,150.743,520.275,151.048,520.175,150.963Z"/>
    <path d="M790.659,148.377c.107-.22.482-.036.833.409l-.047.178-.062.231c-.306.191-.635.267-.731.171A1.645,1.645,0,0,1,790.659,148.377Z"/>
    <path d="M482.935,149.113c-.119,0-.207-.175-.2-.4s.1-.808.172-.814a.5.5,0,0,1,.326.386C483.273,148.512,483.055,149.11,482.935,149.113Z"/>
    <path d="M183.344,248.223c.095-.068.283.052.418.268s.433.826.363.876a.542.542,0,0,1-.545-.176C183.42,248.994,183.249,248.292,183.344,248.223Z"/>
    <path d="M34.023,149.032c-.105.01-.212-.153-.237-.361s-.031-.77.044-.786a.473.473,0,0,1,.374.334C34.259,148.433,34.128,149.022,34.023,149.032Z"/>
    <path d="M329.274,267.518c.012-.044.19-.047.4-.006s.728.211.7.29a.381.381,0,0,1-.437.15A2.386,2.386,0,0,1,329.274,267.518Z"/>
    <path d="M189.873,139c.033-.164.146-.273.251-.241l0,.01-.028.145c-.047.156-.155.267-.241.246l0-.01Z"/>
    <path d="M227.185,15.8c-.064.015-.164-.11-.223-.278s-.126-.637-.019-.671.4.03.415.217A1.584,1.584,0,0,1,227.185,15.8Z"/>
    <path d="M775.269,275.171c.094-.192.431-.1.75.214l.089.241c.043.117-.234.5-.32.489l-.281-.047A.83.83,0,0,1,775.269,275.171Z"/>
    <path d="M293.082,134.086l.474,1.866C292.727,135.333,292.727,135.333,293.082,134.086Z"/>
    <path d="M686.138,286.274c-.011-.059.126-.153.3-.207s.667-.135.687-.055a.367.367,0,0,1-.267.352A1.51,1.51,0,0,1,686.138,286.274Z"/>
    <path d="M490.492,134.184c-.13.089-.343,0-.472-.2l-.019-.213c-.008-.088.322-.316.428-.278l.171.06A.523.523,0,0,1,490.492,134.184Z"/>
    <path d="M155.772,291.642c-.053.006-.144-.131-.2-.305s-.121-.647-.009-.666.406.084.406.271A1.746,1.746,0,0,1,155.772,291.642Z"/>
    <path d="M130.426,293.23l-1.189-.618C130.3,292.052,130.3,292.052,130.426,293.23Z"/>
    <path d="M188.2,293.216c-.1-.02-.125-.194-.065-.388a3.739,3.739,0,0,1,.285-.7.517.517,0,0,1,.131.39C188.549,292.728,188.3,293.235,188.2,293.216Z"/>
    <path d="M332.348,296.812c.037.06-.131.228-.372.374a3.206,3.206,0,0,1-.944.419c-.037-.062.062-.343.3-.487A2.678,2.678,0,0,1,332.348,296.812Z"/>
    <path d="M771.319,297.789c.1,0,.2.17.218.379s-.055.774-.16.793-.232-.159-.278-.377S771.216,297.789,771.319,297.789Z"/>
    <path d="M236.3,736.752c.165.14.053.485-.249.766l-.279.153-.061.033c-.2-.226-.278-.534-.171-.684S236.137,736.611,236.3,736.752Z"/>
    <path d="M140.58,72.178c.18-.172.31-.051.289.268s-.571.656-.645.585S140.4,72.35,140.58,72.178Z"/>
    <path d="M554.6,72.783c0,.009-.21-.308-.472-.7s1.151-.757.987-.421S554.594,72.774,554.6,72.783Z"/>
    <path d="M112.537,747.219c-.009.074-.233.113-.5.087s-.952-.168-.939-.261a.506.506,0,0,1,.521-.257A2.4,2.4,0,0,1,112.537,747.219Z"/>
    <path d="M386.291,71.539c.053.015.047.242-.013.5s-.286.937-.365.914a.506.506,0,0,1-.132-.547A3.083,3.083,0,0,1,386.291,71.539Z"/>
    <path d="M105.505,72.031a.586.586,0,0,1,.074-.908l.1.05a.985.985,0,0,1,.468.549c.029.106-.346.456-.4.428Z"/>
    <path d="M41.718,68.5a.674.674,0,0,1,.908.01l-.022.04-.132.242a.469.469,0,0,1-.7.052l-.029-.2Z"/>
    <path d="M178.389,759.938c.07.082-.033.262-.228.4s-.753.447-.8.384a.509.509,0,0,1,.139-.513C177.673,760.052,178.32,759.856,178.389,759.938Z"/>
    <path d="M627.286,759.885c.082.069.021.251-.136.4s-.619.51-.678.456a.477.477,0,0,1,.029-.5C626.634,760.074,627.2,759.815,627.286,759.885Z"/>
    <path d="M158.048,762.984s.414-.1.917-.207l.436.056.173.022c.229.555.1.864-.3.689S158.046,762.988,158.048,762.984Z"/>
    <path d="M577.161,64.126c.581.261.694.659.252.885l-.151-.061a1.67,1.67,0,0,1-.59-.573c-.027-.036.176-.337.22-.325Z"/>
    <path d="M356.909,62.145c.054.037.062.214.018.394s-.209.652-.27.653a.8.8,0,0,1-.389-.454l.046-.2.046-.2A.692.692,0,0,1,356.909,62.145Z"/>
    <path d="M204.64,59.707c.038-.107.236-.138.44-.067s.681.437.606.656l-.05-.005-.38-.035C204.842,60.17,204.6,59.815,204.64,59.707Z"/>
    <path d="M15.074,788.657a.554.554,0,0,1,.957-.015l-.043.06-.184.258c-.286.225-.65.259-.808.077l.027-.13Z"/>
    <path d="M464.175,789.276c-.065-.036-.064-.2,0-.373s.322-.572.427-.52.3.315.19.467S464.239,789.311,464.175,789.276Z"/>
    <path d="M940.357,19.41c.08.006.132.184.115.4s-.125.766-.2.76a.43.43,0,0,1-.259-.407C940.024,19.947,940.277,19.4,940.357,19.41Z"/>
    <path d="M462.649,58.5c-.05.035-.215,0-.367-.086a1.276,1.276,0,0,1-.414-.651c-.007-.148.4-.466.522-.234A2.9,2.9,0,0,1,462.649,58.5Z"/>
    <path d="M13.169,56.8l.71,1.623C12.781,58.048,12.781,58.048,13.169,56.8Z"/>
    <path d="M628.252,790.344c.026-.1.2-.137.385-.078s.641.306.6.421-.283.358-.456.287S628.225,790.446,628.252,790.344Z"/>
    <path d="M601.6,56.469c.2.219.294.487.213.594a.533.533,0,0,1-.664.013l-.1-.219c-.031-.064.256-.4.391-.393Z"/>
    <path d="M914.764,54.96c-.071-.041-.031-.247.089-.459s.5-.734.579-.689a.472.472,0,0,1,.055.541C915.359,54.56,914.835,55,914.764,54.96Z"/>
    <path d="M110.147,21.314c-.092.042-.269-.261-.393-.675l-.081-.383,0-.024a.427.427,0,0,1,.541.217A1.411,1.411,0,0,1,110.147,21.314Z"/>
    <path d="M306.013,50.235c.137.388.035.575-.225.416l-.083-.081-.247-.242c-.262-.276-.19-.409.161-.3l.294.151Z"/>
    <path d="M734.856,819.777a1.275,1.275,0,0,1,.32.361.716.716,0,0,1-.075.625c-.1.081-.445.174-.513.03a2.532,2.532,0,0,1-.132-.764C734.473,819.9,734.765,819.72,734.856,819.777Z"/>
    <path d="M118.037,48.6c1.763-.391.792.809,1.028,1.246Z"/>
    <path d="M305.865,822.433c-.067-.007-.094-.251-.059-.543s.192-1.05.275-1.038a.558.558,0,0,1,.209.564A3.053,3.053,0,0,1,305.865,822.433Z"/>
    <path d="M214.68,46.327c-.052-.056.037-.217.2-.357s.62-.466.67-.412a.416.416,0,0,1-.1.456C215.284,46.157,214.732,46.384,214.68,46.327Z"/>
    <path d="M89.96,823.358c.049-.052.217,0,.375.113s.559.453.543.5a.746.746,0,0,1-.53.14l-.189-.1L90,823.92A.68.68,0,0,1,89.96,823.358Z"/>
    <path d="M760.1,561.148a.272.272,0,0,1-.11.373c-.14.091-.549.213-.636.094a.452.452,0,0,1,.088-.486A.713.713,0,0,1,760.1,561.148Z"/>
    <path d="M153.217,568.112c.015.072-.191.162-.459.2a3.275,3.275,0,0,1-1,.017c-.013-.066.168-.275.434-.319A2.452,2.452,0,0,1,153.217,568.112Z"/>
    <path d="M954.828,574.7c-.077-.029-.08-.194-.007-.368s.369-.589.469-.55.126.221.062.395S954.905,574.724,954.828,574.7Z"/>
    <path d="M240.829,575.5c.087,0,.189.181.228.413s.072.856-.01.871a.484.484,0,0,1-.377-.385C240.627,576.157,240.743,575.506,240.829,575.5Z"/>
    <path d="M952.539,576.655c-.071.03-.209-.1-.308-.28s-.273-.705-.171-.746.425.01.492.2A1.58,1.58,0,0,1,952.539,576.655Z"/>
    <path d="M739,588.216c-.03-.073.145-.219.389-.324s.917-.316.951-.232a.516.516,0,0,1-.328.477A2.26,2.26,0,0,1,739,588.216Z"/>
    <path d="M227.571,588.789c-.045-.062.076-.23.268-.373s.734-.472.776-.416a.494.494,0,0,1-.193.474A1.83,1.83,0,0,1,227.571,588.789Z"/>
    <path d="M223.23,591.509a.248.248,0,0,1-.078-.425.749.749,0,0,1,.64-.095c.131.066.409.355.328.479S223.421,591.611,223.23,591.509Z"/>
    <path d="M106.352,592.155c.033.073-.141.219-.386.325a4.888,4.888,0,0,1-.922.316c-.017-.038.125-.253.355-.394A1.985,1.985,0,0,1,106.352,592.155Z"/>
    <path d="M53.477,601.37c-.013-.1.131-.182.321-.182a2.166,2.166,0,0,1,.71.1c.01.053-.116.232-.3.278S53.49,601.47,53.477,601.37Z"/>
    <path d="M955.168,609.335c-.015-.071.239-.13.563-.13a6.974,6.974,0,0,1,1.187.079.837.837,0,0,1-.555.21A3.411,3.411,0,0,1,955.168,609.335Z"/>
    <path d="M750.96,615.435c-.13.152-.312.193-.406.093a.817.817,0,0,1-.121-.534c.032-.11.229-.332.353-.249S751.089,615.284,750.96,615.435Z"/>
    <path d="M33.674,93.963c.157-.389.357-.424.444-.08s-.022.885-.386.648l-.044-.428Z"/>
    <path d="M457.111,89.766c-.033.073-.223.06-.422-.028s-.639-.5-.537-.718l.011.005.363.143C456.914,89.353,457.144,89.694,457.111,89.766Z"/>
    <path d="M7.982,89.789c-.05.1-.248.093-.439-.01s-.614-.545-.513-.749l.035.01.374.107C7.839,89.3,8.033,89.691,7.982,89.789Z"/>
    <path d="M778.647,665.664a.387.387,0,0,1,.094.509.715.715,0,0,1-.609.209c-.108-.067-.319-.368-.223-.5S778.488,665.533,778.647,665.664Z"/>
    <path d="M519.726,675.589c.48.285.741.6.578.7a1.243,1.243,0,0,1-.727.077.712.712,0,0,1-.229-.8l.113.006Z"/>
    <path d="M794.87,694.49c-1.135-.568-1.227-1.038-.193-1.876C794.751,693.33,794.8,693.805,794.87,694.49Z"/>
    <path d="M473.784,83.877c.074.065-.027.267-.225.45s-.768.618-.823.56a.549.549,0,0,1,.124-.555C473.039,84.142,473.709,83.812,473.784,83.877Z"/>
    <path d="M661.7,693.851c.093-.135.345-.031.56.232l.105.217.016.033c-.234.145-.506.216-.6.157A.726.726,0,0,1,661.7,693.851Z"/>
    <path d="M324.891,83.627c.119.022.174.265.123.54a4.43,4.43,0,0,1-.281.994.756.756,0,0,1-.218-.544C324.5,84.323,324.772,83.605,324.891,83.627Z"/>
    <path d="M681.311,78.334c.038.1-.1.265-.3.364s-.763.293-.809.211a.5.5,0,0,1,.212-.513C680.627,78.277,681.274,78.232,681.311,78.334Z"/>
    <path d="M468.771,75.626c.05-.009.136.127.191.3s.112.662.007.692-.383-.054-.383-.249A2.045,2.045,0,0,1,468.771,75.626Z"/>
    <path d="M550.753,722.13c.184.074.127.3-.126.51l-.168.051-.125.038a.359.359,0,0,1-.255-.364C550.11,722.232,550.57,722.057,550.753,722.13Z"/>
    <path d="M5.456,728.409c0-.053.224-.107.506-.12a5.48,5.48,0,0,1,1.032.031.712.712,0,0,1-.5.2A3.327,3.327,0,0,1,5.456,728.409Z"/>
    <path d="M796.9,732.989c.121-.093.382.058.581.336l.071.251.019.065c-.269.144-.576.17-.681.059A.784.784,0,0,1,796.9,732.989Z"/>
    <path d="M155.75,734.52c0-.058.123-.076.266-.041s.522.136.527.144a.685.685,0,0,1-.256.055C156.136,734.692,155.747,734.577,155.75,734.52Z"/>
    <path d="M606.041,734.646c.012.013-.1.013-.254,0s-.439-.044-.3-.044A4.544,4.544,0,0,1,606.041,734.646Z"/>
    <path d="M822.713,903.832c.013-.01-.094-.094-.237-.185a.746.746,0,0,1-.206-.825c.173-.271.788-.812.826-.359A4.306,4.306,0,0,1,822.713,903.832Z" fill="#fff"/>
  </g>
</svg>
